<?xml version="1.0" encoding="UTF-8" standalone="no"?>
<!DOCTYPE svg PUBLIC "-//W3C//DTD SVG 1.1//EN" "http://www.w3.org/Graphics/SVG/1.1/DTD/svg11.dtd">
<svg version="1.1" xmlns="http://www.w3.org/2000/svg" xmlns:xlink="http://www.w3.org/1999/xlink" preserveAspectRatio="xMidYMid meet" viewBox="0 0 400 500" width="400" height="500"><defs><path d="M198.43 493.05C204.65 493.05 210.92 490.64 215.58 485.88C232.22 469.32 365.38 336.82 382.03 320.26C391.47 310.86 391.47 295.53 382.03 285.95C379.72 283.65 361.28 265.3 358.98 263.01C349.53 253.61 334.12 253.61 324.49 263.01C318.79 268.69 290.3 297.09 239 348.2C239 156.28 239 49.66 239 28.34C239 14.98 228.01 4.1 214.65 4.1C211.4 4.1 185.4 4.1 182.15 4.1C168.73 4.1 157.86 14.86 157.86 28.34C157.86 49.67 157.86 156.33 157.86 348.32C106.46 297.17 77.9 268.76 72.19 263.07C62.74 253.68 47.27 253.68 37.7 263.07C35.4 265.37 16.96 283.72 14.65 286.01C5.21 295.41 5.21 310.8 14.65 320.32C25.76 331.36 81.31 386.54 181.28 485.88C188.62 490.66 194.33 493.05 198.43 493.05Z" id="hdfOwYDbQ"></path></defs><g><g><g><use xlink:href="#hdfOwYDbQ" opacity="1" fill="#000000" fill-opacity="1"></use><g><use xlink:href="#hdfOwYDbQ" opacity="1" fill-opacity="0" stroke="#000000" stroke-width="1" stroke-opacity="0"></use></g></g></g></g></svg>