<?xml version="1.0" encoding="UTF-8" standalone="no"?>
<!DOCTYPE svg PUBLIC "-//W3C//DTD SVG 1.1//EN" "http://www.w3.org/Graphics/SVG/1.1/DTD/svg11.dtd">
<svg version="1.1" xmlns="http://www.w3.org/2000/svg" xmlns:xlink="http://www.w3.org/1999/xlink" preserveAspectRatio="xMidYMid meet" viewBox="0 0 200 200" width="200" height="200"><defs><path d="M96.83 0.6L96.99 0.6L97.15 0.6L97.31 0.6L97.48 0.6L97.65 0.6L97.82 0.6L97.99 0.6L98.17 0.61L98.35 0.61L98.53 0.61L98.72 0.61L98.9 0.61L99.09 0.61L99.28 0.61L99.47 0.62L99.66 0.62L99.85 0.62L100.05 0.62L100.39 0.63L100.72 0.63L101.05 0.64L101.37 0.64L101.69 0.65L102 0.65L102.3 0.66L102.61 0.67L102.91 0.68L103.2 0.69L103.5 0.7L103.79 0.71L104.08 0.72L104.37 0.73L104.66 0.75L104.95 0.76L105.24 0.78L105.53 0.79L105.82 0.81L106.11 0.83L106.41 0.85L106.7 0.87L107 0.89L107.31 0.91L107.61 0.94L107.93 0.96L108.24 0.99L108.56 1.02L108.89 1.05L109.23 1.08L109.57 1.11L109.91 1.14L110.27 1.18L110.63 1.22L111 1.25L111.39 1.29L111.78 1.33L112.18 1.38L112.59 1.42L113.01 1.47L113.12 1.48L113.24 1.49L113.35 1.51L113.46 1.52L113.58 1.53L113.69 1.54L113.8 1.55L113.9 1.57L114.01 1.58L114.11 1.59L114.22 1.6L114.32 1.61L114.42 1.62L114.51 1.63L114.61 1.64L114.7 1.65L114.79 1.66L114.88 1.67L114.97 1.68L115.05 1.69L115.13 1.7L115.21 1.7L115.28 1.71L115.35 1.72L115.42 1.73L115.49 1.73L115.55 1.74L115.61 1.75L115.67 1.75L115.72 1.76L115.77 1.76L115.81 1.76L115.85 1.77L115.89 1.77L115.92 1.77L115.95 1.78L115.98 1.78L116 1.78L116.01 1.78L116.02 1.78L116.04 1.78L116.05 1.79L116.06 1.81L116.07 1.83L116.08 1.86L116.09 1.9L116.1 1.94L116.11 2L116.12 2.06L116.13 2.13L116.14 2.21L116.14 2.3L116.15 2.4L116.16 2.52L116.16 2.64L116.17 2.77L116.18 2.92L116.18 3.08L116.19 3.25L116.19 3.44L116.2 3.63L116.2 3.84L116.2 4.07L116.21 4.31L116.21 4.56L116.21 4.83L116.21 5.12L116.22 5.42L116.22 5.74L116.22 6.07L116.22 6.43L116.22 6.8L116.22 7.18L116.23 7.59L116.23 8.01L116.23 8.46L116.23 8.92L116.23 9.4L116.23 9.9L116.23 10.43L116.23 19.07L117.17 20.62L117.66 21.41L118.17 22.18L118.68 22.92L119.2 23.64L119.73 24.33L120.26 25L120.81 25.64L121.37 26.25L121.93 26.85L122.5 27.41L123.08 27.95L123.67 28.47L124.27 28.96L124.88 29.43L125.5 29.87L126.13 30.28L126.76 30.67L127.41 31.04L128.06 31.38L128.73 31.7L129.4 31.99L130.09 32.26L130.78 32.5L131.48 32.72L132.2 32.92L132.92 33.09L133.65 33.23L134.4 33.35L135.15 33.45L135.92 33.52L136.69 33.57L137.47 33.59L138.27 33.59L139.08 33.57L139.89 33.52L140.72 33.44L141.56 33.35L142.41 33.22L143.26 33.08L144.14 32.91L144.23 32.89L144.32 32.87L144.41 32.85L144.5 32.83L144.59 32.81L144.68 32.79L144.77 32.77L144.86 32.75L144.94 32.73L145.03 32.71L145.12 32.7L145.2 32.68L145.29 32.66L145.37 32.64L145.46 32.62L145.54 32.6L145.62 32.58L145.7 32.56L145.78 32.54L145.85 32.52L145.93 32.51L146 32.49L146.07 32.47L146.14 32.45L146.21 32.44L146.27 32.42L146.33 32.4L146.39 32.39L146.45 32.37L146.51 32.36L146.56 32.34L146.61 32.33L146.66 32.32L146.7 32.3L146.74 32.29L146.78 32.28L146.82 32.27L146.85 32.26L146.88 32.25L146.9 32.24L146.94 32.22L146.98 32.2L147.02 32.18L147.07 32.15L147.13 32.11L147.19 32.06L147.26 32.01L147.34 31.95L147.42 31.89L147.5 31.82L147.6 31.74L147.7 31.66L147.8 31.56L147.92 31.47L148.04 31.36L148.16 31.25L148.3 31.12L148.44 31L148.58 30.86L148.74 30.72L148.9 30.57L149.07 30.41L149.25 30.24L149.44 30.06L149.63 29.88L149.83 29.69L150.04 29.49L150.26 29.28L150.48 29.06L150.71 28.84L150.96 28.6L151.21 28.36L151.47 28.11L151.73 27.85L152.01 27.58L152.3 27.3L152.59 27.01L152.9 26.71L153.21 26.41L153.53 26.09L153.78 25.85L154.02 25.61L154.27 25.37L154.51 25.13L154.75 24.9L154.98 24.67L155.21 24.44L155.44 24.22L155.67 24L155.89 23.78L156.1 23.57L156.32 23.36L156.52 23.16L156.73 22.96L156.93 22.76L157.12 22.58L157.31 22.39L157.49 22.22L157.67 22.04L157.84 21.88L158.01 21.72L158.17 21.56L158.32 21.42L158.46 21.28L158.6 21.14L158.74 21.02L158.86 20.9L158.98 20.79L159.09 20.68L159.19 20.59L159.28 20.5L159.37 20.42L159.44 20.35L159.51 20.28L159.57 20.23L159.62 20.19L159.66 20.15L159.69 20.13L159.71 20.11L159.72 20.1L159.74 20.1L159.77 20.11L159.8 20.12L159.85 20.14L159.91 20.17L159.97 20.21L160.05 20.25L160.13 20.3L160.22 20.36L160.32 20.42L160.43 20.49L160.54 20.57L160.67 20.65L160.79 20.74L160.93 20.83L161.07 20.93L161.22 21.03L161.38 21.14L161.54 21.25L161.7 21.37L161.87 21.49L162.05 21.62L162.22 21.75L162.41 21.88L162.6 22.02L162.79 22.16L162.98 22.3L163.18 22.45L163.38 22.6L163.58 22.75L163.79 22.91L164 23.06L164.21 23.22L164.42 23.38L164.63 23.54L164.84 23.71L165.05 23.87L165.27 24.04L165.48 24.2L165.69 24.37L166.12 24.7L166.54 25.04L166.96 25.37L167.38 25.71L167.79 26.05L168.19 26.39L168.6 26.73L169 27.07L169.39 27.42L169.78 27.76L170.17 28.11L170.55 28.46L170.93 28.8L171.3 29.15L171.67 29.5L172.04 29.86L172.4 30.21L172.75 30.56L173.1 30.91L173.45 31.27L173.79 31.62L174.13 31.98L174.46 32.33L174.79 32.69L175.11 33.04L175.43 33.4L175.74 33.76L176.05 34.11L176.35 34.47L176.65 34.83L176.94 35.19L177.23 35.54L177.51 35.9L177.79 36.26L178.06 36.61L178.32 36.97L178.58 37.33L178.84 37.68L179.08 38.04L179.33 38.4L180.33 39.85L167.66 52.51L167.51 53.37L167.45 53.7L167.39 54.02L167.33 54.35L167.27 54.69L167.21 55.02L167.16 55.35L167.11 55.69L167.05 56.03L167 56.36L166.95 56.7L166.91 57.04L166.86 57.38L166.82 57.71L166.77 58.05L166.73 58.38L166.69 58.72L166.65 59.04L166.62 59.37L166.58 59.7L166.55 60.02L166.52 60.34L166.49 60.65L166.47 60.96L166.44 61.26L166.42 61.56L166.4 61.86L166.38 62.15L166.36 62.43L166.35 62.71L166.34 62.98L166.33 63.24L166.32 63.5L166.31 63.75L166.31 63.99L166.31 64.23L166.31 64.45L166.31 64.67L166.32 64.87L166.33 65.07L166.34 65.26L166.38 65.87L166.44 66.47L166.51 67.06L166.6 67.64L166.69 68.21L166.8 68.77L166.92 69.32L167.06 69.86L167.21 70.39L167.37 70.91L167.55 71.42L167.74 71.92L167.94 72.42L168.16 72.9L168.39 73.38L168.64 73.85L168.9 74.31L169.17 74.76L169.46 75.2L169.76 75.64L170.08 76.06L170.42 76.49L170.76 76.9L171.13 77.31L171.51 77.71L171.9 78.1L172.31 78.49L172.74 78.87L173.18 79.24L173.64 79.61L174.11 79.97L174.6 80.33L175.11 80.68L175.63 81.03L176.17 81.37L176.73 81.71L177.3 82.04L177.89 82.37L178.5 82.7L179.12 83.02L181.13 84.02L190.26 84.02L190.88 84.02L191.48 84.02L192.05 84.02L192.59 84.02L193.1 84.02L193.59 84.02L194.05 84.02L194.49 84.02L194.9 84.02L195.29 84.02L195.66 84.02L196 84.03L196.32 84.03L196.63 84.03L196.91 84.03L197.17 84.04L197.41 84.04L197.64 84.05L197.85 84.05L198.04 84.06L198.21 84.06L198.37 84.07L198.52 84.07L198.65 84.08L198.77 84.09L198.88 84.1L198.97 84.1L199.06 84.11L199.13 84.12L199.2 84.13L199.25 84.15L199.3 84.16L199.34 84.17L199.37 84.18L199.4 84.2L199.42 84.21L199.44 84.23L199.45 84.25L199.46 84.26L199.46 84.28L199.47 84.3L199.47 84.31L199.48 84.33L199.48 84.36L199.49 84.38L199.49 84.41L199.5 84.44L199.51 84.48L199.51 84.52L199.52 84.56L199.53 84.6L199.54 84.65L199.55 84.7L199.55 84.75L199.56 84.8L199.57 84.86L199.58 84.92L199.59 84.98L199.6 85.04L199.61 85.1L199.62 85.17L199.63 85.24L199.65 85.31L199.66 85.38L199.67 85.45L199.68 85.53L199.69 85.6L199.7 85.68L199.72 85.76L199.73 85.84L199.74 85.92L199.75 86L199.77 86.09L199.78 86.17L199.79 86.26L199.8 86.34L199.82 86.43L199.83 86.51L199.84 86.6L199.86 86.69L199.93 87.23L200.01 87.77L200.08 88.31L200.15 88.87L200.22 89.42L200.28 89.99L200.34 90.56L200.39 91.13L200.44 91.71L200.49 92.29L200.53 92.87L200.57 93.46L200.61 94.05L200.64 94.65L200.67 95.25L200.7 95.85L200.72 96.46L200.74 97.06L200.76 97.67L200.77 98.28L200.78 98.9L200.78 99.51L200.78 100.13L200.78 100.75L200.78 101.36L200.77 101.98L200.75 102.6L200.74 103.22L200.72 103.84L200.69 104.46L200.67 105.08L200.64 105.7L200.6 106.32L200.56 106.93L200.52 107.55L200.48 108.16L200.43 108.77L200.38 109.38L200.32 109.99L200.26 110.59L200.24 110.78L200.22 110.97L200.2 111.17L200.18 111.36L200.16 111.56L200.14 111.76L200.12 111.96L200.1 112.16L200.07 112.36L200.05 112.56L200.03 112.76L200 112.96L199.98 113.16L199.96 113.36L199.93 113.56L199.91 113.75L199.89 113.94L199.86 114.13L199.84 114.32L199.82 114.5L199.8 114.68L199.77 114.86L199.75 115.03L199.73 115.2L199.71 115.36L199.69 115.52L199.67 115.67L199.65 115.81L199.63 115.95L199.61 116.08L199.6 116.21L199.58 116.32L199.56 116.43L199.55 116.54L199.54 116.63L199.52 116.71L199.51 116.79L199.5 116.86L199.49 116.91L199.48 116.96L199.4 117.32L181.42 117.32L179.36 118.35L179.08 118.49L178.81 118.63L178.54 118.77L178.27 118.91L178.01 119.04L177.76 119.18L177.51 119.32L177.26 119.46L177.02 119.59L176.79 119.73L176.55 119.87L176.32 120L176.1 120.14L175.88 120.28L175.66 120.41L175.44 120.55L175.23 120.69L175.02 120.83L174.82 120.97L174.62 121.11L174.42 121.25L174.22 121.39L174.03 121.54L173.84 121.68L173.65 121.83L173.46 121.97L173.28 122.12L173.1 122.27L172.92 122.42L172.74 122.58L172.56 122.73L172.38 122.89L172.21 123.05L172.04 123.21L171.87 123.37L171.7 123.53L171.53 123.7L171.36 123.87L171.19 124.04L171.03 124.21L170.85 124.4L170.67 124.59L170.5 124.78L170.33 124.97L170.17 125.17L170 125.36L169.85 125.55L169.69 125.75L169.54 125.94L169.4 126.14L169.26 126.33L169.12 126.53L168.98 126.73L168.85 126.93L168.72 127.13L168.59 127.34L168.47 127.54L168.35 127.75L168.24 127.95L168.12 128.16L168.01 128.37L167.91 128.59L167.8 128.8L167.7 129.02L167.61 129.24L167.51 129.46L167.42 129.68L167.33 129.9L167.25 130.13L167.16 130.36L167.08 130.59L167.01 130.82L166.93 131.06L166.86 131.3L166.79 131.54L166.72 131.79L166.66 132.03L166.59 132.29L166.53 132.54L166.48 132.8L166.46 132.87L166.44 132.95L166.43 133.03L166.42 133.1L166.4 133.18L166.39 133.26L166.37 133.34L166.36 133.42L166.35 133.5L166.34 133.58L166.33 133.66L166.32 133.74L166.31 133.82L166.3 133.91L166.29 133.99L166.28 134.08L166.27 134.17L166.26 134.26L166.25 134.36L166.25 134.45L166.24 134.55L166.24 134.65L166.23 134.76L166.22 134.86L166.22 134.97L166.22 135.08L166.21 135.2L166.21 135.31L166.2 135.43L166.2 135.56L166.2 135.69L166.2 135.82L166.2 135.95L166.19 136.09L166.19 136.24L166.19 136.38L166.19 136.53L166.19 136.69L166.19 136.85L166.2 137.02L166.2 137.25L166.2 137.48L166.2 137.7L166.2 137.91L166.2 138.12L166.21 138.33L166.21 138.53L166.22 138.73L166.23 138.93L166.24 139.13L166.25 139.32L166.26 139.51L166.27 139.7L166.28 139.89L166.3 140.08L166.31 140.27L166.33 140.47L166.35 140.66L166.37 140.85L166.4 141.05L166.42 141.25L166.45 141.45L166.48 141.66L166.51 141.87L166.54 142.08L166.57 142.3L166.61 142.53L166.65 142.76L166.69 143L166.73 143.24L166.77 143.49L166.82 143.75L166.87 144.02L166.92 144.3L166.98 144.58L167.03 144.88L167.09 145.18L167.16 145.5L167.22 145.82L167.29 146.16L167.82 148.82L180.23 161.23L179.7 161.98L179.49 162.29L179.27 162.59L179.04 162.9L178.81 163.2L178.57 163.51L178.33 163.83L178.09 164.14L177.84 164.45L177.58 164.77L177.32 165.08L177.06 165.4L176.79 165.72L176.52 166.04L176.24 166.36L175.96 166.68L175.68 167L175.39 167.32L175.1 167.65L174.8 167.97L174.5 168.29L174.2 168.62L173.9 168.94L173.59 169.26L173.27 169.59L172.96 169.91L172.64 170.24L172.32 170.56L171.99 170.88L171.67 171.2L171.34 171.53L171 171.85L170.67 172.17L170.33 172.49L169.99 172.81L169.65 173.12L169.3 173.44L168.95 173.76L168.6 174.07L168.25 174.38L167.9 174.69L167.76 174.81L167.62 174.94L167.47 175.07L167.3 175.21L167.14 175.35L166.96 175.5L166.78 175.65L166.59 175.81L166.4 175.98L166.2 176.14L166 176.31L165.8 176.48L165.59 176.66L165.38 176.83L165.17 177.01L164.95 177.19L164.73 177.37L164.52 177.54L164.3 177.72L164.08 177.9L163.87 178.08L163.65 178.26L163.44 178.43L163.23 178.6L163.02 178.77L162.82 178.94L162.61 179.1L162.42 179.26L162.23 179.41L162.04 179.56L161.86 179.7L161.69 179.84L161.52 179.98L161.36 180.1L161.21 180.22L161.06 180.33L160.93 180.44L160.8 180.53L160.69 180.62L160.58 180.7L160 181.15L153.78 174.88L147.57 168.63L145.7 168.43L145.61 168.42L145.52 168.4L145.42 168.39L145.32 168.39L145.22 168.38L145.11 168.37L145 168.36L144.88 168.35L144.76 168.34L144.64 168.33L144.51 168.32L144.38 168.32L144.25 168.31L144.12 168.3L143.98 168.29L143.84 168.29L143.69 168.28L143.54 168.27L143.39 168.27L143.24 168.26L143.09 168.26L142.93 168.25L142.77 168.25L142.61 168.24L142.45 168.24L142.28 168.23L142.12 168.23L141.95 168.23L141.78 168.22L141.61 168.22L141.43 168.22L141.26 168.22L141.09 168.21L140.91 168.21L140.73 168.21L140.55 168.21L140.38 168.21L140.2 168.21L140.02 168.21L139.84 168.21L139.58 168.21L139.34 168.21L139.1 168.21L138.88 168.21L138.66 168.21L138.45 168.22L138.25 168.22L138.05 168.22L137.87 168.22L137.69 168.23L137.51 168.23L137.35 168.24L137.18 168.24L137.03 168.24L136.88 168.25L136.73 168.26L136.59 168.26L136.46 168.27L136.32 168.28L136.19 168.28L136.07 168.29L135.94 168.3L135.82 168.31L135.7 168.32L135.59 168.33L135.47 168.34L135.36 168.35L135.24 168.37L135.13 168.38L135.02 168.39L134.9 168.41L134.79 168.42L134.67 168.44L134.56 168.46L134.44 168.48L134.32 168.5L134.2 168.52L134.07 168.54L133.95 168.56L133.82 168.58L133.64 168.61L133.45 168.65L133.27 168.68L133.09 168.72L132.9 168.76L132.72 168.8L132.53 168.84L132.34 168.88L132.16 168.93L131.97 168.97L131.78 169.02L131.6 169.07L131.41 169.12L131.23 169.17L131.04 169.22L130.85 169.27L130.67 169.33L130.49 169.38L130.3 169.44L130.12 169.5L129.94 169.55L129.76 169.61L129.58 169.67L129.41 169.73L129.23 169.79L129.06 169.86L128.88 169.92L128.71 169.98L128.55 170.05L128.38 170.11L128.22 170.18L128.05 170.24L127.9 170.31L127.74 170.38L127.58 170.44L127.43 170.51L127.29 170.58L127.14 170.65L127 170.72L126.86 170.79L126.55 170.95L126.24 171.11L125.93 171.28L125.62 171.46L125.32 171.64L125.02 171.83L124.72 172.03L124.43 172.23L124.14 172.43L123.85 172.64L123.57 172.86L123.29 173.08L123.01 173.3L122.73 173.54L122.46 173.77L122.2 174.01L121.93 174.26L121.67 174.51L121.41 174.76L121.16 175.02L120.91 175.29L120.66 175.56L120.42 175.83L120.18 176.11L119.95 176.39L119.72 176.68L119.49 176.97L119.27 177.26L119.05 177.56L118.84 177.86L118.63 178.17L118.42 178.48L118.22 178.79L118.03 179.11L117.83 179.43L117.65 179.76L117.47 180.08L117.29 180.42L117.12 180.75L116.95 181.09L116.23 182.57L116.23 190.89L116.23 191.46L116.23 192.01L116.23 192.53L116.23 193.02L116.23 193.49L116.23 193.93L116.23 194.36L116.22 194.75L116.22 195.13L116.22 195.49L116.22 195.82L116.22 196.13L116.22 196.43L116.21 196.7L116.21 196.96L116.21 197.2L116.2 197.42L116.2 197.63L116.19 197.82L116.19 197.99L116.18 198.15L116.18 198.3L116.17 198.43L116.16 198.56L116.16 198.66L116.15 198.76L116.14 198.85L116.13 198.93L116.12 198.99L116.11 199.05L116.1 199.1L116.09 199.15L116.07 199.18L116.06 199.21L116.05 199.24L116.03 199.26L116.01 199.28L116 199.29L115.98 199.3L115.96 199.3L115.92 199.31L115.86 199.33L115.78 199.34L115.69 199.36L115.58 199.38L115.46 199.4L115.33 199.42L115.18 199.45L115.02 199.47L114.85 199.5L114.67 199.53L114.48 199.55L114.28 199.58L114.07 199.61L113.86 199.64L113.64 199.68L113.41 199.71L113.18 199.74L112.94 199.77L112.7 199.81L112.45 199.84L112.21 199.87L111.96 199.91L111.71 199.94L111.46 199.97L111.21 200L110.96 200.04L110.71 200.07L110.47 200.1L110.23 200.13L109.99 200.16L109.76 200.19L109.54 200.21L109.32 200.24L109.11 200.26L108.9 200.29L108.71 200.31L108.52 200.33L108.34 200.35L108.18 200.37L107.97 200.38L107.73 200.4L107.48 200.42L107.2 200.43L106.91 200.45L106.59 200.46L106.26 200.48L105.92 200.49L105.56 200.5L105.19 200.51L104.8 200.52L104.41 200.53L104 200.53L103.58 200.54L103.16 200.55L102.73 200.55L102.3 200.55L101.86 200.56L101.42 200.56L100.98 200.56L100.54 200.56L100.09 200.56L99.65 200.56L99.22 200.55L98.78 200.55L98.35 200.54L97.93 200.54L97.52 200.53L97.11 200.52L96.72 200.51L96.33 200.5L95.96 200.49L95.6 200.48L95.25 200.47L94.93 200.45L94.61 200.44L94.32 200.42L94.05 200.4L93.79 200.39L93.56 200.37L93.36 200.35L93.15 200.33L92.93 200.31L92.72 200.29L92.5 200.27L92.27 200.25L92.04 200.22L91.81 200.2L91.58 200.17L91.34 200.15L91.1 200.12L90.86 200.1L90.61 200.07L90.37 200.04L90.12 200.02L89.88 199.99L89.63 199.96L89.38 199.93L89.14 199.9L88.89 199.87L88.64 199.84L88.4 199.81L88.16 199.78L87.92 199.76L87.68 199.73L87.44 199.69L87.2 199.66L86.97 199.63L86.75 199.6L86.52 199.57L86.3 199.54L86.08 199.52L85.87 199.49L85.66 199.46L85.46 199.43L85.26 199.4L85.07 199.37L84.89 199.34L84.71 199.31L84.54 199.29L82.93 199.04L82.93 182.62L82.29 181.36L82.22 181.22L82.15 181.09L82.07 180.95L81.99 180.8L81.91 180.66L81.83 180.51L81.74 180.36L81.65 180.21L81.56 180.05L81.46 179.89L81.37 179.74L81.27 179.58L81.17 179.42L81.07 179.26L80.97 179.09L80.86 178.93L80.76 178.77L80.65 178.61L80.55 178.45L80.44 178.29L80.33 178.13L80.22 177.97L80.11 177.81L80 177.65L79.89 177.5L79.79 177.34L79.68 177.19L79.57 177.05L79.46 176.9L79.36 176.76L79.25 176.62L79.15 176.48L79.05 176.34L78.95 176.21L78.85 176.09L78.75 175.97L78.65 175.85L78.56 175.74L78.47 175.63L78.38 175.52L78.09 175.2L77.79 174.88L77.49 174.57L77.19 174.27L76.88 173.98L76.57 173.7L76.25 173.42L75.93 173.15L75.61 172.89L75.28 172.63L74.95 172.38L74.61 172.14L74.27 171.91L73.92 171.69L73.57 171.47L73.21 171.26L72.85 171.06L72.49 170.86L72.11 170.67L71.74 170.49L71.35 170.31L70.97 170.15L70.57 169.99L70.17 169.83L69.77 169.69L69.36 169.54L68.94 169.41L68.51 169.28L68.08 169.16L67.65 169.05L67.21 168.94L66.76 168.84L66.3 168.75L65.84 168.66L65.37 168.58L64.89 168.51L64.41 168.44L63.92 168.38L63.42 168.32L62.92 168.27L62.75 168.26L62.57 168.24L62.39 168.23L62.18 168.22L61.97 168.21L61.75 168.2L61.52 168.2L61.28 168.19L61.03 168.18L60.77 168.18L60.5 168.18L60.23 168.17L59.96 168.17L59.68 168.17L59.39 168.17L59.1 168.17L58.81 168.17L58.51 168.18L58.22 168.18L57.92 168.19L57.62 168.19L57.33 168.2L57.03 168.2L56.74 168.21L56.45 168.22L56.16 168.23L55.87 168.24L55.59 168.25L55.32 168.26L55.05 168.28L54.79 168.29L54.53 168.3L54.28 168.32L54.05 168.33L53.82 168.35L53.6 168.37L53.39 168.38L53.19 168.4L53 168.42L52.83 168.44L51.6 168.6L45.8 174.38L40 180.18L37.96 178.54L37.66 178.3L37.37 178.06L37.07 177.81L36.77 177.56L36.47 177.31L36.16 177.06L35.86 176.8L35.56 176.54L35.26 176.28L34.96 176.01L34.65 175.75L34.35 175.48L34.05 175.2L33.74 174.93L33.44 174.65L33.13 174.37L32.83 174.08L32.53 173.8L32.22 173.51L31.92 173.22L31.61 172.93L31.31 172.63L31.01 172.33L30.7 172.03L30.4 171.73L30.1 171.43L29.8 171.12L29.49 170.81L29.19 170.5L28.89 170.19L28.59 169.88L28.29 169.56L27.99 169.25L27.69 168.93L27.39 168.6L27.09 168.28L26.8 167.96L26.5 167.63L26.2 167.3L25.91 166.97L25.75 166.8L25.6 166.62L25.44 166.44L25.28 166.26L25.11 166.07L24.95 165.88L24.79 165.69L24.62 165.5L24.46 165.31L24.29 165.11L24.12 164.92L23.96 164.72L23.79 164.53L23.63 164.33L23.46 164.14L23.3 163.94L23.14 163.75L22.98 163.56L22.82 163.37L22.67 163.18L22.52 162.99L22.37 162.81L22.22 162.63L22.08 162.45L21.94 162.27L21.8 162.1L21.67 161.94L21.54 161.78L21.42 161.62L21.3 161.47L21.19 161.32L21.08 161.18L20.98 161.04L20.88 160.92L20.79 160.79L20.71 160.68L20.63 160.57L20.56 160.47L20.49 160.38L20.44 160.3L20.02 159.67L31.15 148.51L31.47 147.4L31.64 146.83L31.79 146.26L31.94 145.7L32.07 145.14L32.2 144.59L32.33 144.04L32.44 143.49L32.54 142.95L32.64 142.41L32.73 141.87L32.81 141.34L32.88 140.82L32.94 140.3L33 139.78L33.04 139.27L33.08 138.76L33.11 138.26L33.13 137.76L33.14 137.27L33.15 136.78L33.15 136.3L33.13 135.82L33.12 135.35L33.09 134.89L33.05 134.43L33.01 133.98L32.95 133.53L32.89 133.09L32.82 132.66L32.74 132.23L32.66 131.81L32.56 131.4L32.46 130.99L32.35 130.6L32.23 130.2L32.1 129.82L31.96 129.44L31.82 129.07L31.67 128.71L31.51 128.35L31.34 128.01L31.17 127.67L30.99 127.33L30.8 127L30.61 126.67L30.41 126.35L30.21 126.04L30 125.73L29.78 125.42L29.55 125.12L29.32 124.82L29.08 124.53L28.83 124.24L28.58 123.96L28.31 123.68L28.04 123.41L27.76 123.13L27.48 122.87L27.18 122.6L26.88 122.35L26.57 122.09L26.25 121.84L25.93 121.59L25.59 121.35L25.25 121.11L24.9 120.87L24.53 120.63L24.16 120.4L23.79 120.17L23.4 119.95L23 119.73L22.59 119.51L22.18 119.29L21.75 119.08L21.32 118.87L20.87 118.66L20.42 118.45L19.96 118.25L19.48 118.05L19 117.85L17.69 117.32L9.82 117.32L9.5 117.32L9.18 117.32L8.86 117.32L8.55 117.32L8.24 117.31L7.93 117.31L7.63 117.31L7.34 117.31L7.05 117.31L6.76 117.31L6.48 117.3L6.21 117.3L5.94 117.3L5.68 117.3L5.43 117.29L5.18 117.29L4.94 117.29L4.7 117.28L4.48 117.28L4.26 117.28L4.05 117.27L3.85 117.27L3.65 117.27L3.47 117.26L3.29 117.26L3.13 117.26L2.97 117.25L2.83 117.25L2.69 117.24L2.56 117.24L2.45 117.23L2.35 117.23L2.25 117.22L2.17 117.22L2.1 117.22L2.05 117.21L2 117.21L1.97 117.2L1.95 117.2L1.94 117.19L1.94 117.18L1.94 117.17L1.94 117.15L1.94 117.13L1.94 117.11L1.93 117.08L1.93 117.04L1.93 117.01L1.92 116.96L1.92 116.92L1.91 116.87L1.91 116.82L1.9 116.76L1.89 116.7L1.89 116.64L1.88 116.57L1.87 116.5L1.87 116.43L1.86 116.35L1.85 116.27L1.84 116.19L1.83 116.11L1.82 116.02L1.81 115.93L1.8 115.84L1.79 115.75L1.78 115.65L1.77 115.56L1.76 115.46L1.75 115.35L1.74 115.25L1.73 115.15L1.72 115.04L1.7 114.93L1.69 114.82L1.68 114.71L1.67 114.6L1.65 114.48L1.64 114.37L1.63 114.25L1.58 113.79L1.53 113.34L1.48 112.9L1.44 112.47L1.4 112.05L1.35 111.64L1.31 111.24L1.28 110.85L1.24 110.47L1.21 110.1L1.17 109.73L1.14 109.37L1.11 109.01L1.09 108.66L1.06 108.32L1.03 107.97L1.01 107.63L0.99 107.3L0.97 106.96L0.95 106.63L0.93 106.3L0.91 105.97L0.9 105.63L0.88 105.3L0.87 104.97L0.86 104.63L0.85 104.29L0.84 103.95L0.83 103.6L0.82 103.25L0.81 102.89L0.81 102.53L0.8 102.16L0.8 101.78L0.79 101.4L0.79 101L0.79 100.6L0.79 100.19L0.79 99.77L0.78 99.34L0.78 99.07L0.78 98.81L0.78 98.54L0.78 98.29L0.78 98.03L0.78 97.78L0.79 97.53L0.79 97.28L0.79 97.04L0.79 96.8L0.79 96.56L0.79 96.33L0.8 96.1L0.8 95.88L0.8 95.65L0.81 95.44L0.81 95.22L0.82 95.01L0.82 94.81L0.83 94.61L0.83 94.41L0.84 94.22L0.84 94.03L0.85 93.85L0.85 93.67L0.86 93.49L0.87 93.32L0.87 93.16L0.88 93L0.89 92.85L0.9 92.7L0.9 92.55L0.91 92.41L0.92 92.28L0.93 92.15L0.94 92.03L0.95 91.91L0.95 91.8L0.96 91.7L0.97 91.6L0.99 91.44L1.01 91.26L1.03 91.08L1.05 90.89L1.08 90.69L1.1 90.49L1.13 90.28L1.15 90.06L1.18 89.84L1.21 89.62L1.24 89.39L1.27 89.15L1.3 88.92L1.34 88.68L1.37 88.45L1.4 88.21L1.44 87.98L1.47 87.74L1.5 87.51L1.54 87.28L1.57 87.05L1.6 86.83L1.63 86.61L1.67 86.39L1.7 86.19L1.73 85.99L1.76 85.79L1.79 85.61L1.82 85.43L1.85 85.26L1.87 85.1L1.9 84.95L1.92 84.82L1.95 84.69L1.97 84.58L1.99 84.48L2.01 84.4L2.02 84.33L2.04 84.27L2.05 84.24L2.06 84.22L2.07 84.21L2.09 84.2L2.11 84.18L2.14 84.17L2.17 84.16L2.21 84.15L2.26 84.14L2.31 84.13L2.38 84.12L2.45 84.11L2.53 84.11L2.62 84.1L2.72 84.09L2.83 84.08L2.95 84.08L3.08 84.07L3.22 84.07L3.38 84.06L3.55 84.06L3.73 84.05L3.92 84.05L4.13 84.04L4.35 84.04L4.58 84.04L4.83 84.03L5.09 84.03L5.37 84.03L5.67 84.03L5.98 84.02L6.31 84.02L6.66 84.02L7.03 84.02L7.41 84.02L7.81 84.02L8.23 84.02L8.67 84.02L9.14 84.02L9.62 84.02L10.12 84.02L18.09 84.02L19.72 83.16L20.27 82.86L20.82 82.56L21.35 82.26L21.87 81.95L22.39 81.64L22.89 81.34L23.38 81.02L23.86 80.71L24.33 80.39L24.79 80.08L25.23 79.76L25.67 79.44L26.09 79.11L26.51 78.79L26.91 78.46L27.3 78.13L27.68 77.8L28.05 77.46L28.41 77.13L28.76 76.79L29.1 76.45L29.42 76.11L29.74 75.77L30.04 75.42L30.33 75.08L30.61 74.73L30.88 74.38L31.14 74.03L31.38 73.67L31.62 73.32L31.84 72.96L32.05 72.61L32.25 72.25L32.44 71.89L32.62 71.53L32.79 71.16L32.94 70.8L33.08 70.43L33.22 70.06L33.34 69.7L33.38 69.55L33.42 69.41L33.46 69.27L33.5 69.14L33.54 69L33.57 68.87L33.61 68.75L33.64 68.62L33.67 68.5L33.7 68.38L33.73 68.26L33.76 68.14L33.78 68.02L33.81 67.9L33.83 67.79L33.85 67.67L33.87 67.55L33.89 67.44L33.91 67.32L33.93 67.2L33.94 67.09L33.96 66.97L33.97 66.85L33.98 66.72L33.99 66.6L34.01 66.48L34.01 66.35L34.02 66.22L34.03 66.09L34.04 65.95L34.05 65.81L34.05 65.67L34.06 65.53L34.06 65.38L34.06 65.23L34.07 65.07L34.07 64.91L34.07 64.74L34.07 64.57L34.07 64.4L34.07 64.14L34.07 63.89L34.06 63.64L34.05 63.4L34.04 63.15L34.03 62.91L34.01 62.66L34 62.42L33.98 62.18L33.95 61.94L33.93 61.7L33.9 61.46L33.87 61.22L33.84 60.98L33.8 60.73L33.76 60.49L33.72 60.25L33.68 60.01L33.63 59.77L33.58 59.52L33.53 59.28L33.47 59.03L33.41 58.78L33.35 58.53L33.29 58.28L33.22 58.02L33.15 57.77L33.07 57.51L33 57.25L32.92 56.98L32.83 56.71L32.75 56.44L32.66 56.17L32.56 55.89L32.46 55.61L32.36 55.33L32.26 55.04L32.15 54.75L32.04 54.46L31.93 54.15L31.3 52.51L25.74 46.93L20.19 41.35L21.09 40.13L21.46 39.65L21.83 39.17L22.2 38.69L22.57 38.22L22.94 37.75L23.32 37.28L23.7 36.81L24.08 36.35L24.47 35.89L24.85 35.43L25.24 34.98L25.64 34.53L26.03 34.08L26.43 33.63L26.83 33.19L27.23 32.75L27.64 32.31L28.05 31.88L28.46 31.44L28.88 31.01L29.3 30.58L29.72 30.16L30.14 29.74L30.57 29.32L31 28.9L31.43 28.48L31.87 28.07L32.31 27.66L32.75 27.25L33.19 26.84L33.64 26.44L34.09 26.04L34.55 25.64L35.01 25.24L35.47 24.85L35.93 24.45L36.4 24.06L36.87 23.67L37.34 23.29L37.82 22.9L40 21.15L51.46 32.61L53.07 32.97L53.3 33.02L53.53 33.07L53.76 33.12L53.98 33.17L54.2 33.22L54.41 33.26L54.62 33.3L54.83 33.34L55.04 33.38L55.24 33.42L55.44 33.45L55.64 33.49L55.84 33.52L56.04 33.55L56.23 33.58L56.43 33.61L56.62 33.63L56.82 33.66L57.01 33.68L57.2 33.7L57.4 33.72L57.59 33.74L57.79 33.76L57.99 33.78L58.19 33.79L58.39 33.8L58.59 33.82L58.79 33.83L59 33.84L59.21 33.85L59.42 33.86L59.64 33.87L59.86 33.87L60.08 33.88L60.31 33.88L60.54 33.89L60.77 33.89L61.01 33.89L61.26 33.89L61.51 33.89L61.69 33.89L61.87 33.89L62.05 33.89L62.22 33.89L62.38 33.89L62.54 33.89L62.7 33.89L62.85 33.89L62.99 33.88L63.13 33.88L63.27 33.88L63.4 33.88L63.53 33.87L63.65 33.87L63.77 33.87L63.89 33.86L64 33.86L64.11 33.85L64.22 33.85L64.33 33.84L64.43 33.83L64.53 33.83L64.62 33.82L64.72 33.81L64.81 33.8L64.9 33.79L64.99 33.79L65.08 33.78L65.16 33.77L65.25 33.75L65.33 33.74L65.41 33.73L65.49 33.72L65.57 33.7L65.65 33.69L65.73 33.68L65.81 33.66L65.89 33.65L65.96 33.63L66.04 33.61L66.32 33.55L66.6 33.49L66.87 33.42L67.13 33.36L67.4 33.29L67.65 33.22L67.91 33.15L68.15 33.07L68.4 33L68.64 32.92L68.88 32.84L69.11 32.76L69.35 32.68L69.57 32.59L69.8 32.5L70.02 32.41L70.24 32.32L70.46 32.22L70.68 32.12L70.89 32.02L71.1 31.92L71.31 31.81L71.52 31.7L71.73 31.58L71.93 31.47L72.14 31.35L72.34 31.22L72.54 31.1L72.74 30.97L72.94 30.83L73.14 30.69L73.34 30.55L73.54 30.41L73.74 30.26L73.94 30.11L74.14 29.95L74.35 29.79L74.55 29.62L74.75 29.45L74.95 29.28L75.07 29.18L75.19 29.07L75.31 28.97L75.43 28.85L75.55 28.74L75.67 28.62L75.79 28.5L75.91 28.37L76.04 28.24L76.17 28.11L76.29 27.97L76.42 27.83L76.55 27.68L76.68 27.53L76.82 27.38L76.95 27.22L77.09 27.06L77.23 26.9L77.37 26.73L77.51 26.55L77.65 26.37L77.8 26.19L77.94 26L78.09 25.81L78.24 25.61L78.39 25.41L78.55 25.2L78.7 24.99L78.86 24.78L79.02 24.56L79.19 24.33L79.35 24.1L79.52 23.86L79.69 23.62L79.86 23.38L80.03 23.13L80.21 22.87L80.39 22.61L80.57 22.35L80.75 22.07L82.93 18.84L82.93 2.28L84.05 2.01L84.19 1.99L84.33 1.95L84.48 1.92L84.64 1.89L84.81 1.86L84.98 1.83L85.15 1.8L85.33 1.76L85.52 1.73L85.71 1.7L85.91 1.66L86.11 1.63L86.31 1.59L86.52 1.56L86.73 1.53L86.94 1.49L87.15 1.46L87.37 1.43L87.59 1.39L87.81 1.36L88.03 1.33L88.25 1.3L88.47 1.26L88.69 1.23L88.91 1.2L89.13 1.17L89.35 1.14L89.57 1.12L89.78 1.09L89.99 1.06L90.2 1.04L90.41 1.01L90.61 0.99L90.81 0.97L91.01 0.95L91.2 0.93L91.39 0.91L91.57 0.89L91.75 0.87L91.92 0.86L92 0.85L92.09 0.84L92.17 0.84L92.26 0.83L92.34 0.82L92.43 0.81L92.51 0.81L92.6 0.8L92.68 0.79L92.76 0.79L92.85 0.78L92.93 0.77L93.01 0.76L93.09 0.76L93.25 0.74L93.41 0.73L93.56 0.72L93.63 0.71L93.71 0.7L93.91 0.69L94.04 0.68L94.16 0.66L94.22 0.66L94.33 0.65L94.38 0.65L94.42 0.64L94.47 0.64L94.51 0.63L94.55 0.63L94.59 0.63L94.62 0.63L94.65 0.62L94.69 0.62L94.73 0.62L94.77 0.62L94.83 0.61L94.89 0.61L94.96 0.61L95.03 0.61L95.12 0.61L95.2 0.61L95.3 0.61L95.4 0.6L95.5 0.6L95.61 0.6L95.73 0.6L95.85 0.6L95.98 0.6L96.11 0.6L96.24 0.6L96.38 0.6L96.53 0.6L96.68 0.6L96.83 0.6ZM99.89 66.01L99.35 66.03L98.81 66.06L98.27 66.1L97.74 66.14L97.21 66.2L96.68 66.26L96.16 66.33L95.63 66.41L95.11 66.5L94.59 66.59L94.07 66.7L93.56 66.81L93.04 66.93L92.53 67.05L92.02 67.19L91.51 67.33L91 67.48L90.49 67.64L89.99 67.81L89.48 67.99L88.98 68.17L88.48 68.37L87.98 68.57L87.48 68.78L86.98 68.99L86.49 69.22L85.99 69.45L85.5 69.7L85.01 69.95L84.25 70.35L83.5 70.76L82.77 71.2L82.05 71.64L81.34 72.11L80.65 72.58L79.97 73.07L79.3 73.58L78.65 74.1L78.01 74.63L77.39 75.18L76.77 75.74L76.18 76.31L75.6 76.9L75.03 77.49L74.48 78.1L73.94 78.73L73.42 79.36L72.91 80.01L72.42 80.67L71.94 81.34L71.48 82.02L71.03 82.71L70.6 83.42L70.19 84.13L69.79 84.85L69.41 85.59L69.05 86.33L68.7 87.09L68.37 87.85L68.06 88.63L67.76 89.41L67.48 90.2L67.22 91L66.98 91.81L66.75 92.63L66.54 93.45L66.35 94.29L66.18 95.13L66.03 95.98L66 96.16L65.97 96.35L65.94 96.55L65.91 96.76L65.89 96.97L65.86 97.18L65.84 97.4L65.81 97.63L65.79 97.86L65.77 98.09L65.75 98.33L65.73 98.57L65.71 98.82L65.7 99.06L65.68 99.31L65.67 99.56L65.66 99.81L65.64 100.06L65.63 100.32L65.62 100.57L65.62 100.82L65.61 101.07L65.6 101.33L65.6 101.58L65.6 101.83L65.59 102.07L65.59 102.32L65.59 102.56L65.6 102.8L65.6 103.04L65.61 103.27L65.61 103.5L65.62 103.72L65.63 103.94L65.64 104.16L65.65 104.37L65.66 104.57L65.68 104.77L65.7 104.96L65.71 105.14L65.75 105.45L65.79 105.77L65.83 106.09L65.87 106.4L65.91 106.72L65.96 107.03L66.01 107.35L66.07 107.66L66.12 107.98L66.18 108.29L66.24 108.6L66.31 108.92L66.37 109.23L66.44 109.54L66.52 109.85L66.59 110.16L66.67 110.47L66.75 110.78L66.83 111.09L66.92 111.39L67.01 111.7L67.1 112L67.19 112.31L67.29 112.61L67.39 112.91L67.49 113.21L67.59 113.51L67.7 113.81L67.81 114.11L67.92 114.41L68.03 114.7L68.15 114.99L68.27 115.28L68.39 115.58L68.51 115.86L68.64 116.15L68.77 116.44L68.9 116.72L69.03 117L69.17 117.29L69.26 117.48L69.35 117.66L69.44 117.84L69.53 118.02L69.62 118.19L69.7 118.36L69.79 118.52L69.87 118.69L69.95 118.84L70.03 119L70.11 119.15L70.19 119.3L70.27 119.44L70.35 119.59L70.44 119.73L70.52 119.87L70.6 120.01L70.68 120.15L70.76 120.29L70.84 120.43L70.93 120.56L71.01 120.7L71.1 120.84L71.19 120.97L71.28 121.11L71.37 121.25L71.46 121.39L71.56 121.53L71.65 121.67L71.75 121.82L71.85 121.96L71.96 122.11L72.07 122.26L72.18 122.42L72.29 122.57L72.41 122.74L72.53 122.9L72.65 123.07L72.78 123.24L72.91 123.41L73.15 123.74L73.41 124.07L73.66 124.39L73.92 124.71L74.19 125.03L74.46 125.34L74.73 125.66L75.01 125.96L75.29 126.27L75.58 126.57L75.87 126.87L76.16 127.16L76.46 127.45L76.76 127.74L77.07 128.03L77.37 128.31L77.69 128.59L78 128.86L78.32 129.13L78.65 129.4L78.97 129.66L79.31 129.93L79.64 130.18L79.98 130.44L80.32 130.68L80.66 130.93L81.01 131.17L81.36 131.41L81.72 131.65L82.07 131.88L82.43 132.1L82.8 132.33L83.17 132.55L83.54 132.76L83.91 132.97L84.29 133.18L84.66 133.38L85.05 133.58L85.43 133.78L85.82 133.97L86.21 134.15L86.59 134.33L86.98 134.51L87.36 134.68L87.74 134.84L88.12 135L88.5 135.16L88.87 135.31L89.25 135.45L89.63 135.59L90 135.72L90.38 135.85L90.76 135.97L91.13 136.09L91.51 136.21L91.88 136.32L92.26 136.42L92.64 136.52L93.02 136.61L93.4 136.7L93.78 136.79L94.16 136.87L94.54 136.94L94.93 137.01L95.32 137.08L95.7 137.14L96.1 137.2L96.49 137.25L96.89 137.3L97.29 137.34L97.69 137.38L98.09 137.42L98.5 137.45L98.91 137.47L99.32 137.5L99.74 137.52L100.16 137.53L100.59 137.54L101.02 137.55L101.45 137.55L101.76 137.55L102.07 137.54L102.37 137.54L102.67 137.53L102.96 137.53L103.25 137.52L103.53 137.51L103.81 137.49L104.09 137.48L104.37 137.46L104.64 137.44L104.91 137.42L105.18 137.4L105.44 137.37L105.71 137.35L105.97 137.32L106.23 137.29L106.49 137.25L106.75 137.22L107 137.18L107.26 137.14L107.51 137.1L107.77 137.05L108.02 137L108.28 136.95L108.54 136.9L108.79 136.85L109.05 136.79L109.31 136.73L109.56 136.67L109.82 136.61L110.09 136.54L110.35 136.47L110.61 136.4L110.88 136.32L111.15 136.24L111.42 136.16L111.7 136.08L111.98 136L112.26 135.91L113.17 135.6L114.07 135.27L114.96 134.92L115.84 134.55L116.7 134.15L117.55 133.74L118.39 133.3L119.21 132.84L120.02 132.36L120.81 131.86L121.59 131.34L122.36 130.8L123.1 130.24L123.84 129.67L124.55 129.07L125.26 128.46L125.94 127.83L126.61 127.18L127.26 126.51L127.89 125.83L128.51 125.13L129.11 124.41L129.69 123.68L130.25 122.93L130.79 122.17L131.31 121.39L131.82 120.6L132.3 119.79L132.76 118.97L133.21 118.13L133.63 117.29L134.03 116.42L134.41 115.55L134.77 114.66L135.11 113.77L135.42 112.86L135.72 111.94L135.99 111L136.23 110.06L136.46 109.11L136.53 108.77L136.6 108.43L136.66 108.08L136.72 107.72L136.78 107.36L136.83 107L136.88 106.63L136.93 106.26L136.97 105.88L137.01 105.5L137.04 105.12L137.07 104.74L137.1 104.35L137.12 103.96L137.14 103.57L137.15 103.17L137.17 102.78L137.17 102.38L137.18 101.99L137.18 101.59L137.17 101.19L137.17 100.8L137.16 100.4L137.14 100.01L137.12 99.61L137.1 99.22L137.07 98.83L137.04 98.44L137.01 98.05L136.97 97.67L136.93 97.29L136.89 96.91L136.84 96.54L136.79 96.17L136.73 95.8L136.67 95.44L136.61 95.08L136.54 94.73L136.47 94.38L136.4 94.04L136.28 93.55L136.16 93.07L136.04 92.58L135.9 92.1L135.77 91.63L135.62 91.15L135.47 90.68L135.31 90.21L135.15 89.74L134.98 89.28L134.8 88.82L134.62 88.36L134.43 87.9L134.24 87.45L134.04 87L133.83 86.55L133.62 86.11L133.4 85.67L133.18 85.23L132.95 84.8L132.71 84.37L132.47 83.94L132.22 83.52L131.97 83.1L131.71 82.68L131.45 82.27L131.18 81.86L130.91 81.46L130.63 81.05L130.34 80.66L130.05 80.26L129.75 79.88L129.45 79.49L129.14 79.11L128.83 78.73L128.51 78.36L128.19 77.99L127.86 77.63L127.53 77.27L127.19 76.92L126.96 76.68L126.73 76.45L126.5 76.23L126.27 76.01L126.04 75.79L125.81 75.57L125.58 75.36L125.36 75.15L125.13 74.94L124.9 74.74L124.66 74.54L124.43 74.34L124.2 74.15L123.97 73.96L123.73 73.77L123.5 73.58L123.26 73.4L123.02 73.22L122.79 73.04L122.54 72.86L122.3 72.69L122.06 72.52L121.81 72.35L121.56 72.18L121.31 72.01L121.06 71.85L120.81 71.69L120.55 71.53L120.29 71.37L120.03 71.21L119.76 71.06L119.5 70.9L119.23 70.75L118.95 70.6L118.68 70.45L118.4 70.3L118.11 70.15L117.83 70L117.54 69.86L117.24 69.71L116.97 69.58L116.69 69.44L116.41 69.31L116.13 69.18L115.85 69.06L115.57 68.93L115.29 68.81L115.01 68.7L114.73 68.58L114.45 68.47L114.17 68.36L113.89 68.25L113.61 68.15L113.33 68.04L113.05 67.94L112.76 67.85L112.48 67.75L112.2 67.66L111.92 67.57L111.64 67.48L111.36 67.4L111.08 67.32L110.79 67.24L110.51 67.16L110.23 67.09L109.95 67.02L109.67 66.95L109.38 66.88L109.1 66.82L108.82 66.76L108.54 66.7L108.25 66.64L107.97 66.59L107.69 66.54L107.41 66.49L107.12 66.44L106.84 66.4L106.55 66.36L106.27 66.32L105.99 66.29L105.42 66.22L104.85 66.16L104.29 66.12L103.73 66.07L103.17 66.04L102.62 66.01L102.07 66L101.52 65.99L100.97 65.99L100.43 65.99L99.89 66.01Z" id="de6pKYMVr"></path></defs><g><g><g><use xlink:href="#de6pKYMVr" opacity="1" fill="#000000" fill-opacity="1"></use><g><use xlink:href="#de6pKYMVr" opacity="1" fill-opacity="0" stroke="#000000" stroke-width="1" stroke-opacity="0"></use></g></g></g></g></svg>