<?xml version="1.0" encoding="UTF-8" standalone="no"?>
<!DOCTYPE svg PUBLIC "-//W3C//DTD SVG 1.1//EN" "http://www.w3.org/Graphics/SVG/1.1/DTD/svg11.dtd">
<svg version="1.1" xmlns="http://www.w3.org/2000/svg" xmlns:xlink="http://www.w3.org/1999/xlink" preserveAspectRatio="xMidYMid meet" viewBox="0 0 200 200" width="200" height="200"><defs><path d="M102.16 0.73L102.79 0.73L103.4 0.73L104 0.73L104.58 0.73L105.15 0.74L105.71 0.74L106.24 0.74L106.76 0.74L107.27 0.74L107.76 0.75L108.23 0.75L108.69 0.75L109.13 0.75L109.55 0.76L109.96 0.76L110.35 0.77L110.73 0.77L111.09 0.77L111.43 0.78L111.76 0.78L112.06 0.79L112.36 0.8L112.63 0.8L112.89 0.81L113.13 0.81L113.36 0.82L113.56 0.83L113.76 0.83L113.93 0.84L114.08 0.85L114.22 0.86L114.34 0.86L114.45 0.87L114.53 0.88L114.6 0.89L114.65 0.9L114.68 0.91L114.7 0.92L114.7 0.93L114.71 0.94L114.71 0.94L114.72 0.95L114.72 0.96L114.73 0.97L114.73 0.98L114.74 0.99L114.74 1L114.75 1.02L114.75 1.03L114.76 1.04L114.76 1.05L114.77 1.07L114.77 1.08L114.78 1.09L114.78 1.11L114.79 1.12L114.79 1.13L114.8 1.15L114.81 1.16L114.81 1.18L114.82 1.19L114.82 1.21L114.83 1.22L114.83 1.23L114.84 1.25L114.84 1.26L114.85 1.28L114.85 1.29L114.85 1.31L114.86 1.32L114.86 1.34L114.87 1.35L114.87 1.37L114.87 1.38L114.88 1.39L114.88 1.41L114.88 1.42L114.89 1.43L114.89 1.45L114.89 1.47L114.9 1.48L114.9 1.51L114.91 1.53L114.92 1.55L114.92 1.58L114.93 1.61L114.94 1.64L114.95 1.67L114.95 1.7L114.96 1.74L114.97 1.77L114.98 1.81L114.99 1.85L115.01 1.89L115.02 1.93L115.03 1.97L115.04 2.02L115.05 2.06L115.07 2.11L115.08 2.15L115.09 2.2L115.11 2.25L115.12 2.3L115.14 2.35L115.15 2.4L115.17 2.45L115.18 2.5L115.2 2.56L115.21 2.61L115.23 2.66L115.25 2.72L115.26 2.77L115.28 2.83L115.3 2.88L115.31 2.94L115.33 2.99L115.35 3.05L115.36 3.1L115.38 3.16L115.4 3.22L115.42 3.28L115.44 3.34L115.45 3.4L115.47 3.46L115.49 3.53L115.52 3.6L115.54 3.67L115.56 3.74L115.58 3.81L115.6 3.88L115.62 3.95L115.65 4.03L115.67 4.1L115.69 4.18L115.71 4.25L115.74 4.33L115.76 4.41L115.78 4.49L115.81 4.56L115.83 4.64L115.85 4.72L115.88 4.8L115.9 4.87L115.92 4.95L115.94 5.03L115.97 5.11L115.99 5.18L116.01 5.26L116.06 5.41L116.08 5.48L116.1 5.55L116.2 5.89L116.24 6.02L116.26 6.1L116.28 6.18L116.34 6.38L116.37 6.49L116.41 6.6L116.45 6.73L116.49 6.86L116.53 7L116.57 7.15L116.61 7.3L116.66 7.46L116.71 7.62L116.76 7.79L116.81 7.97L116.87 8.15L116.92 8.34L116.98 8.53L117.04 8.73L117.1 8.93L117.16 9.13L117.22 9.34L117.29 9.55L117.35 9.77L117.42 9.99L117.48 10.21L117.55 10.44L117.62 10.66L117.69 10.89L117.76 11.13L117.83 11.36L117.9 11.6L117.97 11.83L118.04 12.07L118.11 12.31L118.18 12.55L118.26 12.79L118.33 13.03L118.4 13.27L118.68 14.19L118.81 14.63L118.94 15.05L119.06 15.46L119.18 15.85L119.29 16.22L119.4 16.58L119.5 16.93L119.6 17.27L119.7 17.59L119.79 17.9L119.88 18.2L119.96 18.49L120.05 18.76L120.13 19.03L120.2 19.28L120.28 19.53L120.35 19.77L120.41 20L120.48 20.22L120.54 20.44L120.61 20.64L120.66 20.84L120.72 21.04L120.78 21.23L120.83 21.41L120.89 21.6L120.94 21.77L120.99 21.95L121.04 22.12L121.09 22.28L121.13 22.45L121.18 22.61L121.23 22.78L121.27 22.94L121.32 23.1L121.37 23.27L121.41 23.43L121.46 23.6L121.48 23.68L121.51 23.76L121.53 23.83L121.55 23.9L121.58 23.97L121.6 24.04L121.62 24.11L121.64 24.17L121.66 24.23L121.68 24.29L121.7 24.35L121.72 24.41L121.74 24.46L121.76 24.51L121.78 24.56L121.8 24.61L121.82 24.65L121.84 24.7L121.86 24.74L121.88 24.78L121.9 24.82L121.92 24.85L121.94 24.89L121.96 24.92L121.98 24.95L122 24.98L122.02 25.01L122.04 25.03L122.05 25.06L122.07 25.08L122.09 25.1L122.11 25.12L122.13 25.14L122.15 25.16L122.17 25.17L122.19 25.19L122.21 25.2L122.23 25.21L122.26 25.22L122.28 25.23L122.3 25.24L122.32 25.25L122.35 25.25L122.38 25.27L122.6 25.34L122.71 25.38L122.84 25.42L122.9 25.44L122.97 25.46L123.05 25.49L123.12 25.52L123.2 25.54L123.28 25.57L123.37 25.6L123.46 25.63L123.54 25.66L123.64 25.69L123.73 25.72L123.82 25.75L123.92 25.78L124.02 25.81L124.12 25.85L124.22 25.88L124.33 25.91L124.43 25.95L124.54 25.98L124.65 26.02L124.76 26.06L124.87 26.09L124.98 26.13L125.09 26.17L125.2 26.2L125.32 26.24L125.43 26.28L125.7 26.37L125.97 26.45L126.23 26.54L126.49 26.63L126.75 26.72L127.01 26.81L127.26 26.9L127.51 26.99L127.76 27.08L128.01 27.17L128.25 27.25L128.49 27.35L128.73 27.44L128.97 27.53L129.21 27.62L129.45 27.71L129.69 27.81L129.92 27.9L130.16 28L130.4 28.09L130.63 28.19L130.87 28.29L131.1 28.39L131.34 28.49L131.58 28.59L131.82 28.7L132.06 28.81L132.3 28.91L132.54 29.02L132.78 29.14L133.03 29.25L133.28 29.37L133.53 29.48L133.78 29.6L134.04 29.73L134.3 29.85L134.56 29.98L134.82 30.11L135.09 30.24L135.36 30.38L138.38 31.88L140.68 30.63L140.87 30.52L141.05 30.42L141.23 30.32L141.41 30.23L141.58 30.13L141.75 30.04L141.92 29.95L142.08 29.86L142.24 29.77L142.4 29.68L142.55 29.6L142.7 29.52L142.85 29.44L143 29.35L143.15 29.28L143.29 29.2L143.43 29.12L143.57 29.05L143.71 28.97L143.84 28.9L143.98 28.82L144.11 28.75L144.24 28.68L144.37 28.61L144.5 28.54L144.63 28.47L144.76 28.4L144.88 28.33L145.01 28.26L145.14 28.19L145.27 28.13L145.39 28.06L145.52 27.99L145.65 27.92L145.77 27.85L145.9 27.79L146.03 27.72L146.16 27.65L146.29 27.58L146.42 27.51L146.47 27.48L146.52 27.46L146.57 27.43L146.63 27.39L146.69 27.36L146.76 27.33L146.82 27.29L146.89 27.25L146.96 27.21L147.04 27.17L147.11 27.13L147.19 27.09L147.27 27.05L147.35 27L147.44 26.96L147.52 26.91L147.61 26.87L147.7 26.82L147.88 26.72L148.07 26.62L148.16 26.57L148.25 26.52L148.45 26.41L148.74 26.26L149.42 25.89L149.61 25.79L149.8 25.69L150.07 25.54L150.35 25.39L150.62 25.24L150.88 25.09L151.15 24.95L151.41 24.81L151.67 24.66L151.93 24.52L152.19 24.38L152.44 24.25L152.69 24.11L152.93 23.98L153.18 23.85L153.42 23.72L153.65 23.59L153.89 23.46L154.12 23.34L154.34 23.21L154.56 23.09L154.78 22.98L155 22.86L155.21 22.74L155.42 22.63L155.62 22.52L155.82 22.41L156.02 22.31L156.21 22.21L156.4 22.1L156.58 22.01L156.76 21.91L156.93 21.82L157.1 21.73L157.27 21.64L157.43 21.55L157.58 21.47L157.73 21.39L157.88 21.31L158.02 21.23L158.16 21.16L158.29 21.09L158.35 21.05L158.42 21.02L158.49 20.98L158.55 20.95L158.62 20.91L158.69 20.88L158.75 20.84L158.82 20.81L158.88 20.77L158.95 20.74L159.01 20.7L159.07 20.67L159.13 20.63L159.2 20.6L159.26 20.57L159.32 20.53L159.37 20.5L159.43 20.47L159.49 20.44L159.54 20.41L159.59 20.38L159.65 20.35L159.7 20.32L159.75 20.29L159.79 20.27L159.84 20.24L159.89 20.21L159.93 20.19L159.97 20.17L160.01 20.14L160.04 20.12L160.08 20.1L160.11 20.08L160.14 20.06L160.17 20.04L160.2 20.03L160.22 20.01L160.25 20L160.27 19.98L160.28 19.97L160.3 19.96L160.31 19.95L160.33 19.94L160.35 19.93L160.36 19.92L160.38 19.91L160.4 19.9L160.41 19.89L160.43 19.88L160.45 19.88L160.47 19.87L160.49 19.86L160.5 19.85L160.52 19.84L160.54 19.83L160.56 19.83L160.57 19.82L160.59 19.81L160.61 19.8L160.63 19.8L160.65 19.79L160.66 19.78L160.68 19.78L160.7 19.77L160.72 19.77L160.73 19.76L160.75 19.76L160.77 19.75L160.78 19.75L160.8 19.74L160.82 19.74L160.83 19.74L160.85 19.73L160.86 19.73L160.88 19.73L160.89 19.73L160.91 19.73L160.92 19.72L160.93 19.72L160.95 19.72L160.97 19.73L161 19.75L161.05 19.79L161.12 19.85L161.2 19.92L161.29 20L161.4 20.1L161.52 20.21L161.66 20.33L161.8 20.47L161.97 20.62L162.14 20.79L162.33 20.96L162.52 21.15L162.73 21.35L162.95 21.56L163.18 21.78L163.42 22.02L163.67 22.26L163.94 22.51L164.21 22.78L164.49 23.05L164.78 23.33L165.07 23.62L165.38 23.92L165.69 24.23L166.01 24.54L166.34 24.87L166.68 25.2L167.02 25.53L167.37 25.88L167.72 26.23L168.08 26.58L168.44 26.94L168.81 27.31L169.19 27.68L169.57 28.06L169.95 28.44L170.34 28.83L170.73 29.22L180.21 38.7L179.88 39.32L179.87 39.35L179.85 39.38L179.84 39.41L179.82 39.44L179.8 39.48L179.78 39.52L179.76 39.56L179.74 39.6L179.72 39.64L179.7 39.69L179.67 39.73L179.65 39.78L179.62 39.83L179.6 39.88L179.57 39.93L179.54 39.99L179.51 40.04L179.48 40.1L179.45 40.15L179.42 40.21L179.39 40.27L179.36 40.33L179.32 40.39L179.29 40.45L179.26 40.51L179.23 40.58L179.19 40.64L179.16 40.7L179.12 40.77L179.09 40.83L179.06 40.89L179.02 40.96L178.99 41.02L178.95 41.09L178.92 41.15L178.88 41.22L178.85 41.28L178.81 41.34L178.78 41.41L178.74 41.47L178.55 41.83L178.35 42.2L178.15 42.56L177.95 42.93L177.75 43.3L177.54 43.68L177.34 44.05L177.14 44.43L176.93 44.8L176.73 45.18L176.53 45.56L176.32 45.93L176.12 46.3L175.92 46.67L175.72 47.04L175.52 47.4L175.33 47.77L175.13 48.12L174.94 48.48L174.75 48.83L174.57 49.17L174.39 49.51L174.21 49.84L174.03 50.16L173.86 50.48L173.69 50.79L173.53 51.1L173.37 51.39L173.21 51.68L173.07 51.95L172.92 52.22L172.78 52.47L172.65 52.72L172.52 52.95L172.4 53.18L172.29 53.39L172.18 53.59L172.08 53.77L171.99 53.94L171.91 54.1L171.87 54.17L171.83 54.24L171.79 54.32L171.75 54.4L171.7 54.48L171.66 54.57L171.61 54.66L171.56 54.75L171.51 54.85L171.45 54.95L171.4 55.05L171.34 55.15L171.29 55.26L171.23 55.36L171.17 55.47L171.11 55.59L171.05 55.7L170.98 55.81L170.92 55.93L170.86 56.05L170.79 56.17L170.73 56.29L170.66 56.41L170.6 56.53L170.53 56.65L170.46 56.77L170.4 56.9L170.33 57.02L170.26 57.14L170.2 57.26L170.13 57.39L170.06 57.51L170 57.63L169.93 57.75L169.87 57.87L169.8 57.99L169.67 58.22L169.55 58.45L168.03 61.2L168.89 62.72L169.03 62.98L169.17 63.24L169.31 63.52L169.46 63.8L169.61 64.08L169.76 64.38L169.91 64.68L170.06 64.98L170.21 65.29L170.36 65.61L170.51 65.93L170.67 66.26L170.82 66.59L170.98 66.92L171.13 67.26L171.28 67.6L171.44 67.94L171.59 68.28L171.74 68.63L171.89 68.98L172.04 69.33L172.19 69.68L172.33 70.03L172.48 70.38L172.62 70.73L172.76 71.08L172.9 71.43L173.04 71.78L173.17 72.12L173.31 72.47L173.44 72.81L173.56 73.15L173.69 73.48L173.81 73.82L173.92 74.14L174.04 74.47L174.15 74.79L174.25 75.1L174.35 75.41L174.45 75.72L175.1 77.67L176.33 78.05L176.38 78.07L176.44 78.09L176.49 78.11L176.55 78.12L176.61 78.14L176.68 78.16L176.74 78.18L176.8 78.2L176.87 78.23L176.94 78.25L177.01 78.27L177.08 78.29L177.15 78.31L177.22 78.33L177.3 78.36L177.37 78.38L177.45 78.4L177.52 78.43L177.6 78.45L177.68 78.47L177.75 78.5L177.83 78.52L177.91 78.54L177.99 78.56L178.07 78.59L178.14 78.61L178.22 78.63L178.3 78.66L178.38 78.68L178.45 78.7L178.53 78.72L178.61 78.74L178.68 78.77L178.76 78.79L178.83 78.81L178.9 78.83L178.97 78.85L179.04 78.87L179.11 78.89L179.18 78.91L179.25 78.93L179.39 78.97L179.61 79.04L179.77 79.08L179.93 79.13L180.09 79.18L180.26 79.23L180.43 79.28L180.51 79.3L180.68 79.35L180.85 79.4L181.02 79.45L181.11 79.48L181.27 79.53L181.44 79.58L181.52 79.6L181.68 79.65L181.83 79.69L181.98 79.74L182.12 79.78L182.25 79.82L182.31 79.84L182.38 79.86L182.44 79.88L182.51 79.9L182.58 79.92L182.65 79.94L182.73 79.96L182.8 79.98L182.88 80L182.96 80.03L183.04 80.05L183.2 80.1L183.46 80.17L183.54 80.2L183.63 80.22L183.72 80.25L183.81 80.27L183.89 80.3L183.98 80.32L184.07 80.35L184.16 80.37L184.25 80.4L184.33 80.43L184.42 80.45L184.51 80.48L184.59 80.5L184.68 80.53L184.76 80.55L184.85 80.58L184.93 80.6L185.01 80.63L185.09 80.65L185.17 80.67L185.25 80.7L185.33 80.72L185.4 80.74L185.47 80.77L185.54 80.79L185.68 80.83L185.82 80.87L185.95 80.91L186.08 80.94L186.21 80.98L186.33 81.02L186.45 81.05L186.57 81.09L186.68 81.12L186.8 81.16L186.91 81.19L187.02 81.22L187.13 81.26L187.24 81.29L187.35 81.32L187.45 81.35L187.56 81.38L187.66 81.41L187.77 81.45L187.87 81.48L187.98 81.51L188.09 81.54L188.19 81.57L188.3 81.61L188.41 81.64L188.52 81.67L188.63 81.71L188.74 81.74L188.86 81.77L188.97 81.81L189.09 81.85L189.21 81.88L189.34 81.92L189.46 81.96L189.59 82L189.72 82.04L189.86 82.08L190 82.12L190.29 82.21L190.35 82.23L190.4 82.24L190.46 82.26L190.51 82.27L190.57 82.29L190.62 82.31L190.68 82.32L190.73 82.34L190.78 82.35L190.83 82.37L190.89 82.38L190.94 82.4L190.99 82.41L191.04 82.43L191.09 82.44L191.14 82.46L191.18 82.47L191.23 82.49L191.28 82.5L191.32 82.51L191.36 82.53L191.52 82.57L191.56 82.59L191.63 82.61L191.69 82.63L191.72 82.63L191.75 82.64L191.78 82.65L191.8 82.66L191.82 82.66L191.84 82.67L191.86 82.67L191.88 82.68L191.89 82.68L191.91 82.69L191.96 82.7L192.03 82.72L192.12 82.74L192.22 82.77L192.33 82.8L192.46 82.84L192.6 82.88L192.75 82.92L192.91 82.97L193.08 83.01L193.25 83.07L193.44 83.12L193.63 83.18L193.83 83.23L194.04 83.29L194.25 83.36L194.46 83.42L194.68 83.48L194.9 83.55L195.12 83.61L195.34 83.68L195.57 83.75L195.79 83.81L196.01 83.88L196.23 83.94L196.44 84.01L196.65 84.07L196.86 84.13L197.06 84.19L197.26 84.25L197.45 84.31L197.63 84.37L197.8 84.42L197.96 84.47L198.12 84.52L198.26 84.56L198.39 84.6L198.51 84.64L198.61 84.67L198.71 84.7L199.88 85.1L199.88 112.52L198.88 113.51L198.81 113.58L198.75 113.64L198.68 113.7L198.62 113.76L198.57 113.82L198.51 113.87L198.45 113.92L198.4 113.97L198.34 114.02L198.29 114.06L198.23 114.1L198.18 114.15L198.13 114.19L198.08 114.23L198.03 114.26L197.97 114.3L197.92 114.33L197.87 114.37L197.81 114.4L197.76 114.43L197.7 114.46L197.65 114.49L197.59 114.52L197.53 114.54L197.47 114.57L197.4 114.6L197.34 114.63L197.27 114.65L197.2 114.68L197.13 114.7L197.06 114.73L196.98 114.76L196.9 114.78L196.82 114.81L196.73 114.83L196.65 114.86L196.55 114.89L196.46 114.92L196.36 114.95L196.26 114.97L196.19 114.99L196.12 115.01L196.04 115.03L195.97 115.06L195.89 115.08L195.81 115.1L195.72 115.13L195.64 115.15L195.55 115.18L195.46 115.2L195.36 115.23L195.27 115.26L195.17 115.29L195.08 115.31L194.98 115.34L194.88 115.37L194.77 115.4L194.67 115.43L194.57 115.46L194.46 115.49L194.35 115.53L194.25 115.56L194.14 115.59L194.03 115.62L193.93 115.65L193.82 115.68L193.71 115.72L193.61 115.75L193.5 115.78L193.39 115.81L193.29 115.84L193.18 115.87L193.08 115.9L192.97 115.94L192.87 115.97L192.77 116L192.67 116.03L192.57 116.06L192.48 116.09L192.38 116.11L192.29 116.14L192.19 116.17L192.1 116.2L192.01 116.23L191.92 116.25L191.83 116.28L191.74 116.31L191.65 116.34L191.56 116.36L191.47 116.39L191.39 116.41L191.3 116.44L191.22 116.46L191.14 116.49L191.06 116.51L190.98 116.53L190.9 116.56L190.83 116.58L190.76 116.6L190.69 116.62L190.62 116.64L190.55 116.66L190.49 116.68L190.42 116.7L190.36 116.72L190.31 116.73L190.25 116.75L190.2 116.77L190.15 116.78L190.11 116.79L190.06 116.81L190.02 116.82L189.98 116.83L189.95 116.84L189.92 116.85L189.89 116.85L189.87 116.86L189.85 116.87L189.83 116.87L189.8 116.88L189.79 116.88L189.77 116.89L189.75 116.89L189.73 116.9L189.71 116.9L189.69 116.91L189.66 116.92L189.63 116.92L189.6 116.93L189.57 116.94L189.54 116.95L189.51 116.96L189.47 116.97L189.43 116.98L189.4 116.99L189.36 117L189.32 117.02L189.27 117.03L189.23 117.04L189.19 117.05L189.14 117.07L189.09 117.08L189.05 117.09L189 117.11L188.95 117.12L188.9 117.14L188.85 117.15L188.8 117.17L188.75 117.18L188.69 117.2L188.64 117.22L188.59 117.23L188.53 117.25L188.48 117.26L188.42 117.28L188.37 117.3L188.31 117.31L188.26 117.33L188.2 117.35L188.15 117.37L188.09 117.38L188.04 117.4L187.99 117.42L187.93 117.43L187.88 117.45L187.82 117.47L187.77 117.48L187.72 117.5L187.67 117.51L187.62 117.53L187.56 117.54L187.51 117.56L187.46 117.57L187.41 117.59L187.37 117.6L187.32 117.62L187.27 117.63L187.23 117.64L187.18 117.66L187.14 117.67L187.1 117.68L187.05 117.69L187.01 117.71L186.98 117.72L186.94 117.73L186.9 117.74L186.87 117.75L186.83 117.76L186.8 117.77L186.77 117.77L186.74 117.78L186.72 117.79L186.69 117.8L186.67 117.8L186.65 117.81L186.63 117.81L186.61 117.82L186.6 117.82L186.58 117.83L186.56 117.83L186.54 117.84L186.53 117.84L186.51 117.85L186.48 117.85L186.46 117.86L186.43 117.87L186.4 117.87L186.38 117.88L186.34 117.89L186.31 117.9L186.28 117.91L186.24 117.92L186.21 117.93L186.17 117.94L186.13 117.95L186.09 117.97L186.04 117.98L186 117.99L185.96 118L185.91 118.02L185.87 118.03L185.82 118.04L185.77 118.06L185.72 118.07L185.67 118.09L185.62 118.1L185.57 118.12L185.52 118.13L185.46 118.15L185.41 118.17L185.36 118.18L185.3 118.2L185.25 118.21L185.19 118.23L185.14 118.25L185.08 118.26L185.03 118.28L184.97 118.3L184.92 118.32L184.86 118.33L184.81 118.35L184.76 118.37L184.7 118.38L184.65 118.4L184.6 118.42L184.54 118.43L184.49 118.45L184.44 118.46L184.39 118.48L184.34 118.49L184.28 118.51L184.23 118.52L184.19 118.54L184.14 118.55L184.09 118.57L184.04 118.58L184 118.59L183.95 118.61L183.91 118.62L183.87 118.63L183.83 118.64L183.78 118.66L183.75 118.67L183.71 118.68L183.67 118.69L183.64 118.7L183.61 118.71L183.57 118.72L183.54 118.72L183.52 118.73L183.49 118.74L183.46 118.75L183.44 118.75L183.42 118.76L183.4 118.76L183.39 118.77L183.37 118.77L183.35 118.78L183.33 118.78L183.32 118.79L183.3 118.79L183.28 118.8L183.25 118.8L183.23 118.81L183.2 118.82L183.18 118.83L183.15 118.83L183.08 118.85L183.01 118.87L182.98 118.89L182.82 118.93L182.77 118.95L182.73 118.96L182.68 118.97L182.64 118.99L182.59 119L182.54 119.02L182.49 119.03L182.44 119.05L182.39 119.06L182.34 119.08L182.29 119.09L182.24 119.11L182.18 119.12L182.13 119.14L182.07 119.15L182.02 119.17L181.97 119.19L181.91 119.2L181.86 119.22L181.8 119.23L181.74 119.25L181.64 119.28L181.54 119.31L181.45 119.34L181.35 119.37L181.26 119.4L181.17 119.43L181.08 119.46L180.99 119.48L180.9 119.51L180.81 119.54L180.73 119.56L180.64 119.59L180.55 119.62L180.46 119.64L180.37 119.67L180.28 119.7L180.19 119.73L180.1 119.75L180 119.78L179.9 119.81L179.8 119.84L179.7 119.87L179.59 119.9L179.48 119.94L179.37 119.97L179.25 120.01L179.13 120.04L178.73 120.16L178.59 120.2L178.44 120.25L178.28 120.29L178.12 120.34L177.95 120.39L177.77 120.44L177.59 120.5L177.4 120.55L177.2 120.61L177 120.67L176.93 120.69L176.86 120.72L176.79 120.74L176.72 120.76L176.65 120.78L176.58 120.8L176.52 120.82L176.45 120.85L176.38 120.87L176.32 120.89L176.26 120.91L176.19 120.93L176.13 120.95L176.07 120.98L176.01 121L175.95 121.02L175.89 121.04L175.84 121.06L175.78 121.08L175.73 121.1L175.68 121.12L175.63 121.14L175.58 121.15L175.53 121.17L175.49 121.19L175.45 121.21L175.41 121.23L175.37 121.24L175.33 121.26L175.29 121.27L175.26 121.29L175.23 121.3L175.2 121.32L175.18 121.33L175.15 121.34L175.13 121.35L175.12 121.37L175.1 121.38L175.09 121.39L175.08 121.39L175.07 121.41L175.06 121.42L175.05 121.44L175.03 121.46L175.02 121.49L175.01 121.52L174.99 121.55L174.98 121.59L174.96 121.62L174.94 121.67L174.92 121.71L174.9 121.76L174.88 121.81L174.86 121.86L174.84 121.92L174.82 121.97L174.79 122.03L174.77 122.1L174.74 122.16L174.72 122.23L174.69 122.3L174.67 122.37L174.64 122.44L174.61 122.52L174.59 122.59L174.56 122.67L174.53 122.75L174.5 122.83L174.47 122.92L174.44 123L174.42 123.09L174.39 123.17L174.36 123.26L174.33 123.35L174.3 123.44L174.27 123.53L174.24 123.62L174.21 123.71L174.18 123.81L174.15 123.9L174.12 124L174.09 124.09L174.06 124.18L174.03 124.27L174 124.37L173.97 124.46L173.94 124.55L173.91 124.64L173.88 124.72L173.85 124.81L173.82 124.9L173.8 124.98L173.77 125.06L173.74 125.14L173.72 125.22L173.69 125.3L173.66 125.38L173.64 125.45L173.61 125.53L173.59 125.6L173.57 125.67L173.54 125.73L173.52 125.8L173.5 125.86L173.48 125.92L173.46 125.98L173.44 126.03L173.42 126.08L173.4 126.13L173.39 126.18L173.37 126.22L173.36 126.26L173.34 126.3L173.33 126.33L173.32 126.36L173.31 126.39L173.3 126.41L173.29 126.44L173.28 126.45L173.27 126.47L173.27 126.48L173.26 126.49L173.25 126.51L173.25 126.52L173.24 126.54L173.23 126.55L173.22 126.57L173.22 126.59L173.21 126.61L173.2 126.63L173.19 126.66L173.18 126.68L173.17 126.7L173.16 126.73L173.15 126.75L173.14 126.78L173.13 126.81L173.11 126.83L173.09 126.89L173.08 126.92L173.07 126.95L173.04 127.01L173.03 127.04L173 127.1L172.97 127.19L172.9 127.35L172.86 127.45L172.85 127.48L172.84 127.51L172.77 127.68L172.7 127.86L172.63 128.03L172.56 128.2L172.49 128.38L172.42 128.55L172.35 128.72L172.28 128.9L172.21 129.07L172.14 129.24L172.07 129.42L171.99 129.59L171.92 129.76L171.85 129.94L171.77 130.11L171.7 130.28L171.62 130.45L171.55 130.62L171.47 130.79L171.4 130.96L171.32 131.13L171.25 131.3L171.17 131.47L171.09 131.64L171.02 131.81L170.94 131.97L170.87 132.14L170.79 132.3L170.71 132.46L170.64 132.63L170.56 132.79L170.48 132.95L170.41 133.1L170.33 133.26L170.25 133.42L170.18 133.57L170.1 133.73L170.03 133.88L169.95 134.03L169.87 134.18L169.83 134.27L169.78 134.36L169.73 134.45L169.69 134.54L169.64 134.63L169.6 134.72L169.56 134.8L169.51 134.89L169.47 134.98L169.43 135.06L169.39 135.14L169.35 135.23L169.31 135.31L169.27 135.39L169.24 135.47L169.2 135.54L169.17 135.62L169.13 135.69L169.1 135.76L169.07 135.83L169.04 135.9L169.01 135.97L168.98 136.03L168.95 136.09L168.93 136.15L168.91 136.21L168.88 136.26L168.86 136.31L168.84 136.36L168.82 136.41L168.81 136.45L168.79 136.49L168.78 136.53L168.77 136.56L168.76 136.6L168.75 136.62L168.74 136.65L168.74 136.67L168.73 136.69L168.73 136.7L168.73 136.72L168.74 136.73L168.74 136.75L168.74 136.76L168.74 136.78L168.75 136.8L168.75 136.81L168.76 136.83L168.76 136.85L168.77 136.87L168.77 136.89L168.78 136.92L168.79 136.94L168.8 136.96L168.81 136.98L168.81 137.01L168.82 137.03L168.83 137.06L168.84 137.08L168.86 137.11L168.87 137.13L168.88 137.16L168.89 137.19L168.9 137.21L168.91 137.24L168.93 137.27L168.94 137.29L168.95 137.32L168.97 137.35L168.98 137.38L169 137.4L169.01 137.43L169.03 137.46L169.04 137.49L169.06 137.52L169.07 137.54L169.09 137.57L169.1 137.6L169.12 137.63L169.13 137.65L169.15 137.68L169.18 137.73L169.21 137.78L169.24 137.84L169.28 137.91L169.32 137.98L169.37 138.07L169.42 138.16L169.48 138.26L169.54 138.37L169.61 138.49L169.67 138.62L169.75 138.75L169.82 138.89L169.9 139.03L169.99 139.19L170.07 139.34L170.16 139.51L170.26 139.68L170.35 139.85L170.45 140.03L170.55 140.22L170.65 140.41L170.76 140.61L170.87 140.81L171.1 141.22L171.21 141.43L171.33 141.65L171.45 141.87L171.57 142.09L171.69 142.32L171.82 142.55L171.94 142.78L172.07 143.01L172.2 143.25L172.33 143.48L172.46 143.72L172.59 143.96L172.72 144.21L172.85 144.45L172.99 144.7L173.12 144.94L173.25 145.19L173.38 145.44L173.52 145.68L173.78 146.18L173.92 146.43L174.05 146.67L174.18 146.92L174.31 147.16L174.44 147.4L174.57 147.64L174.7 147.88L174.82 148.11L174.95 148.34L175.07 148.57L175.19 148.8L175.31 149.02L175.43 149.24L175.55 149.45L175.66 149.66L175.77 149.87L175.88 150.07L175.98 150.26L176.09 150.45L176.18 150.64L176.28 150.81L176.37 150.98L176.46 151.15L176.55 151.31L176.63 151.46L176.71 151.6L176.78 151.74L176.85 151.87L176.92 151.99L176.98 152.1L177.04 152.2L177.09 152.3L177.14 152.39L177.19 152.48L177.24 152.57L177.29 152.67L177.34 152.77L177.4 152.86L177.45 152.96L177.5 153.06L177.61 153.26L177.78 153.57L177.84 153.67L177.89 153.77L177.95 153.88L178 153.98L178.06 154.08L178.11 154.18L178.17 154.28L178.22 154.38L178.27 154.48L178.33 154.58L178.38 154.68L178.43 154.78L178.48 154.87L178.53 154.97L178.58 155.06L178.63 155.15L178.68 155.24L178.73 155.32L178.77 155.41L178.82 155.49L178.86 155.57L178.9 155.65L178.94 155.73L178.98 155.8L179.02 155.87L179.05 155.94L179.09 156L179.12 156.06L179.15 156.13L179.19 156.19L179.23 156.26L179.26 156.32L179.3 156.39L179.33 156.46L179.37 156.52L179.41 156.59L179.45 156.66L179.48 156.72L179.52 156.79L179.56 156.86L179.59 156.93L179.63 156.99L179.67 157.06L179.7 157.13L179.74 157.19L179.78 157.26L179.81 157.32L179.85 157.39L179.88 157.45L179.92 157.51L179.95 157.57L179.98 157.64L180.02 157.69L180.05 157.75L180.08 157.81L180.11 157.87L180.14 157.92L180.17 157.97L180.2 158.03L180.23 158.08L180.26 158.12L180.28 158.17L180.31 158.22L180.33 158.26L180.35 158.3L180.38 158.34L180.4 158.37L180.42 158.41L180.44 158.45L180.46 158.48L180.47 158.52L180.49 158.55L180.51 158.59L180.53 158.62L180.55 158.66L180.57 158.69L180.59 158.73L180.6 158.76L180.62 158.8L180.64 158.83L180.65 158.86L180.67 158.9L180.68 158.93L180.7 158.96L180.71 158.99L180.73 159.02L180.74 159.05L180.76 159.08L180.77 159.11L180.78 159.14L180.79 159.17L180.8 159.19L180.81 159.22L180.82 159.25L180.83 159.27L180.84 159.29L180.85 159.31L180.86 159.34L180.86 159.36L180.87 159.38L180.88 159.39L180.88 159.41L180.88 159.43L180.89 159.44L180.89 159.45L180.89 159.47L180.89 159.48L180.85 159.54L180.74 159.68L180.55 159.89L180.3 160.16L179.99 160.5L179.62 160.89L179.19 161.33L178.71 161.83L178.19 162.37L177.62 162.96L177.01 163.58L176.37 164.24L175.69 164.93L174.99 165.64L174.26 166.38L173.51 167.13L172.75 167.9L171.97 168.69L171.19 169.47L170.4 170.27L169.61 171.06L168.82 171.84L168.05 172.62L167.28 173.39L166.52 174.14L165.79 174.87L165.08 175.57L164.39 176.25L163.74 176.9L163.12 177.51L162.54 178.08L161.99 178.61L161.5 179.08L161.06 179.51L160.67 179.89L160.33 180.2L160.06 180.45L159.86 180.63L159.72 180.75L159.66 180.79L159.64 180.79L159.62 180.78L159.61 180.78L159.58 180.78L159.56 180.77L159.53 180.76L159.51 180.75L159.48 180.74L159.44 180.73L159.41 180.72L159.37 180.7L159.33 180.69L159.29 180.67L159.25 180.65L159.21 180.63L159.16 180.61L159.12 180.59L159.07 180.57L159.02 180.55L158.97 180.53L158.91 180.5L158.86 180.48L158.8 180.45L158.75 180.42L158.69 180.39L158.63 180.36L158.57 180.33L158.51 180.3L158.45 180.27L158.39 180.24L158.33 180.21L158.26 180.18L158.2 180.14L158.13 180.11L158.07 180.07L158 180.04L157.94 180L157.87 179.97L157.8 179.93L157.74 179.89L157.67 179.86L157.6 179.82L157.52 179.78L157.44 179.74L157.36 179.7L157.28 179.65L157.2 179.61L157.11 179.56L157.02 179.51L156.93 179.46L156.83 179.41L156.73 179.36L156.64 179.31L156.54 179.25L156.44 179.2L156.33 179.14L156.23 179.09L156.13 179.03L156.02 178.98L155.92 178.92L155.81 178.86L155.7 178.8L155.59 178.74L155.49 178.69L155.38 178.63L155.27 178.57L155.16 178.51L155.05 178.45L154.95 178.39L154.84 178.34L154.73 178.28L154.63 178.22L154.52 178.17L154.42 178.11L154.32 178.05L154.21 178L154.11 177.94L154.02 177.89L153.92 177.84L153.82 177.79L153.73 177.74L153.63 177.68L153.54 177.63L153.44 177.58L153.34 177.53L153.24 177.48L153.14 177.42L153.04 177.37L152.94 177.32L152.84 177.26L152.74 177.21L152.64 177.15L152.54 177.1L152.44 177.05L152.34 176.99L152.24 176.94L152.14 176.89L152.05 176.83L151.95 176.78L151.85 176.73L151.76 176.68L151.67 176.63L151.57 176.58L151.48 176.53L151.39 176.48L151.3 176.43L151.22 176.38L151.13 176.34L151.05 176.29L150.97 176.25L150.89 176.21L150.82 176.17L150.74 176.13L150.67 176.09L150.61 176.05L150.54 176.01L150.48 175.98L150.42 175.95L150.36 175.92L150.31 175.89L149.97 175.7L149.64 175.53L149.33 175.35L149.02 175.19L148.72 175.03L148.44 174.87L148.16 174.72L147.89 174.58L147.64 174.44L147.38 174.3L147.14 174.17L146.91 174.04L146.46 173.8L146.03 173.57L145.83 173.46L145.63 173.36L145.44 173.25L145.25 173.15L145.07 173.05L144.89 172.95L144.71 172.86L144.54 172.76L144.36 172.67L144.2 172.58L144.03 172.49L143.86 172.4L143.7 172.31L143.53 172.22L143.37 172.13L143.21 172.04L143.04 171.95L142.88 171.86L142.71 171.77L142.55 171.68L142.38 171.59L142.21 171.5L142.03 171.4L141.86 171.31L141.75 171.25L141.64 171.19L141.53 171.13L141.41 171.07L141.3 171.01L141.19 170.95L141.08 170.89L140.97 170.82L140.85 170.76L140.74 170.7L140.63 170.64L140.52 170.58L140.41 170.52L140.3 170.47L140.19 170.41L140.09 170.35L139.98 170.29L139.88 170.24L139.77 170.18L139.67 170.13L139.57 170.07L139.47 170.02L139.38 169.97L139.28 169.92L139.19 169.87L139.1 169.82L139.01 169.77L138.93 169.73L138.85 169.68L138.77 169.64L138.69 169.6L138.55 169.52L138.42 169.45L138.36 169.42L138.25 169.36L138.15 169.31L137.11 168.76L133.69 170.47L133.43 170.6L133.16 170.73L132.89 170.86L132.63 170.99L132.36 171.12L132.09 171.25L131.82 171.38L131.54 171.51L131.27 171.63L131 171.76L130.73 171.88L130.45 172L130.18 172.13L129.91 172.25L129.64 172.37L129.36 172.49L129.09 172.6L128.82 172.72L128.55 172.83L128.28 172.95L128.01 173.06L127.75 173.17L127.48 173.28L127.21 173.38L126.95 173.49L126.69 173.59L126.43 173.7L126.17 173.79L125.92 173.89L125.67 173.99L125.41 174.08L125.17 174.17L124.92 174.26L124.68 174.35L124.44 174.43L124.2 174.52L123.97 174.6L123.73 174.68L123.51 174.75L123.28 174.82L123.21 174.85L123.14 174.87L123.08 174.89L123.01 174.92L122.94 174.94L122.87 174.96L122.81 174.99L122.74 175.01L122.68 175.04L122.61 175.06L122.55 175.08L122.49 175.11L122.43 175.13L122.37 175.16L122.31 175.18L122.25 175.2L122.2 175.23L122.14 175.25L122.09 175.27L122.04 175.3L121.99 175.32L121.94 175.34L121.9 175.36L121.85 175.39L121.81 175.41L121.77 175.43L121.73 175.45L121.7 175.47L121.66 175.49L121.63 175.51L121.6 175.52L121.57 175.54L121.55 175.56L121.52 175.58L121.5 175.59L121.49 175.61L121.47 175.62L121.46 175.63L121.45 175.65L121.44 175.66L121.43 175.68L121.42 175.7L121.41 175.74L121.39 175.78L121.37 175.84L121.35 175.91L121.32 175.98L121.29 176.06L121.26 176.15L121.23 176.25L121.2 176.36L121.16 176.48L121.12 176.6L121.08 176.73L121.03 176.87L120.99 177.02L120.94 177.17L120.89 177.33L120.84 177.5L120.79 177.67L120.73 177.85L120.67 178.03L120.62 178.22L120.56 178.42L120.49 178.62L120.43 178.82L120.37 179.04L120.3 179.25L120.24 179.47L120.17 179.69L120.1 179.92L120.03 180.15L119.96 180.39L119.89 180.63L119.82 180.87L119.74 181.11L119.67 181.36L119.6 181.61L119.52 181.86L119.45 182.12L119.37 182.37L119.3 182.63L119.22 182.88L119.15 183.13L119.07 183.38L119 183.63L118.92 183.88L118.85 184.13L118.78 184.37L118.71 184.61L118.64 184.85L118.57 185.09L118.5 185.32L118.43 185.55L118.36 185.77L118.3 186L118.23 186.21L118.17 186.43L118.11 186.63L118.05 186.84L117.99 187.04L117.93 187.23L117.87 187.42L117.82 187.6L117.77 187.78L117.72 187.95L117.67 188.11L117.62 188.26L117.58 188.41L117.53 188.56L117.49 188.69L117.46 188.82L117.42 188.94L117.39 189.05L117.36 189.15L117.33 189.24L117.3 189.33L117.28 189.4L117.26 189.47L117.24 189.52L117.23 189.57L117.18 189.73L117.15 189.83L117.12 189.93L117.09 190.03L117.06 190.12L117.03 190.22L117.02 190.26L117 190.31L116.99 190.35L116.96 190.44L116.95 190.48L116.94 190.52L116.93 190.56L116.92 190.6L116.9 190.64L116.89 190.68L116.88 190.71L116.87 190.74L116.86 190.78L116.85 190.81L116.85 190.84L116.84 190.87L116.83 190.89L116.82 190.92L116.82 190.94L116.81 190.96L116.8 190.98L116.8 191L116.79 191.02L116.79 191.03L116.78 191.06L116.78 191.07L116.78 191.09L116.77 191.11L116.77 191.13L116.76 191.15L116.75 191.17L116.75 191.2L116.74 191.23L116.73 191.26L116.72 191.29L116.71 191.32L116.7 191.35L116.69 191.39L116.68 191.43L116.67 191.46L116.66 191.5L116.65 191.54L116.63 191.59L116.62 191.63L116.61 191.67L116.59 191.72L116.58 191.77L116.57 191.81L116.55 191.86L116.54 191.91L116.52 191.96L116.51 192.01L116.49 192.06L116.48 192.11L116.46 192.17L116.45 192.22L116.43 192.27L116.41 192.33L116.4 192.38L116.38 192.44L116.36 192.49L116.35 192.55L116.33 192.6L116.31 192.66L116.3 192.71L116.28 192.77L116.26 192.82L116.24 192.87L116.23 192.93L116.21 192.98L116.2 193.03L116.18 193.09L116.16 193.14L116.15 193.19L116.13 193.24L116.12 193.3L116.1 193.35L116.09 193.4L116.07 193.45L116.06 193.49L116.04 193.54L116.03 193.59L116.02 193.63L116 193.68L115.99 193.72L115.98 193.76L115.97 193.81L115.96 193.85L115.94 193.88L115.93 193.92L115.92 193.96L115.91 193.99L115.9 194.03L115.9 194.06L115.89 194.09L115.88 194.12L115.87 194.14L115.87 194.17L115.86 194.19L115.85 194.21L115.85 194.23L115.84 194.24L115.84 194.26L115.83 194.28L115.83 194.3L115.83 194.32L115.82 194.33L115.82 194.35L115.81 194.38L115.8 194.4L115.8 194.43L115.79 194.45L115.78 194.48L115.77 194.52L115.76 194.55L115.75 194.58L115.74 194.62L115.73 194.65L115.72 194.69L115.71 194.73L115.7 194.77L115.68 194.82L115.67 194.86L115.66 194.9L115.64 194.95L115.63 194.99L115.62 195.04L115.6 195.09L115.59 195.14L115.57 195.19L115.56 195.24L115.54 195.29L115.53 195.34L115.51 195.4L115.5 195.45L115.48 195.5L115.46 195.56L115.45 195.61L115.43 195.67L115.41 195.72L115.4 195.78L115.38 195.83L115.36 195.89L115.33 195.98L115.3 196.08L115.28 196.17L115.25 196.26L115.23 196.35L115.2 196.43L115.18 196.51L115.15 196.58L115.13 196.66L115.11 196.73L115.09 196.8L115.07 196.87L115.05 196.93L115.04 196.99L115.02 197.05L115 197.11L114.99 197.16L114.97 197.21L114.96 197.26L114.94 197.31L114.93 197.35L114.92 197.4L114.91 197.44L114.9 197.48L114.89 197.52L114.88 197.55L114.87 197.59L114.86 197.62L114.86 197.65L114.85 197.68L114.84 197.71L114.84 197.74L114.83 197.77L114.83 197.79L114.82 197.82L114.82 197.84L114.82 197.86L114.82 197.88L114.81 197.9L114.81 197.92L114.81 197.93L114.81 197.93L114.8 197.94L114.79 197.96L114.78 197.97L114.77 197.99L114.76 198L114.75 198.02L114.73 198.05L114.72 198.07L114.7 198.09L114.68 198.12L114.66 198.15L114.64 198.17L114.62 198.2L114.59 198.24L114.57 198.27L114.54 198.3L114.51 198.34L114.48 198.37L114.45 198.41L114.42 198.45L114.39 198.49L114.36 198.53L114.33 198.57L114.29 198.62L114.26 198.66L114.22 198.7L114.18 198.75L114.14 198.79L114.11 198.84L114.07 198.89L114.03 198.94L113.99 198.99L113.94 199.03L113.9 199.08L113.86 199.13L113.82 199.18L113.77 199.24L113.73 199.29L112.68 200.54L85.22 200.54L84.5 198.13L84.47 198.03L84.44 197.92L84.41 197.82L84.38 197.71L84.34 197.61L84.31 197.5L84.28 197.39L84.25 197.28L84.22 197.17L84.18 197.07L84.15 196.96L84.12 196.85L84.09 196.74L84.05 196.63L84.02 196.52L83.99 196.41L83.96 196.3L83.93 196.2L83.89 196.09L83.86 195.99L83.83 195.88L83.8 195.78L83.77 195.68L83.74 195.58L83.71 195.48L83.68 195.38L83.65 195.29L83.62 195.19L83.6 195.1L83.57 195.01L83.54 194.93L83.52 194.84L83.49 194.76L83.47 194.68L83.44 194.61L83.42 194.53L83.4 194.46L83.38 194.4L83.36 194.33L83.34 194.27L83.24 193.94L83.14 193.62L83.05 193.29L82.95 192.97L82.85 192.64L82.76 192.32L82.66 192.01L82.57 191.69L82.47 191.38L82.38 191.07L82.29 190.76L82.2 190.46L82.11 190.17L82.03 189.88L81.94 189.59L81.86 189.31L81.78 189.04L81.7 188.77L81.62 188.51L81.55 188.26L81.48 188.02L81.41 187.78L81.34 187.55L81.28 187.34L81.21 187.13L81.16 186.93L81.1 186.74L81.05 186.56L81 186.39L80.95 186.23L80.91 186.08L80.87 185.95L80.84 185.83L80.8 185.72L80.78 185.62L80.75 185.54L80.73 185.47L80.72 185.41L80.71 185.37L80.7 185.35L80.7 185.33L80.69 185.32L80.69 185.3L80.68 185.28L80.68 185.26L80.67 185.24L80.66 185.21L80.66 185.19L80.65 185.16L80.64 185.13L80.63 185.1L80.62 185.07L80.6 185L80.59 184.96L80.56 184.88L80.55 184.84L80.5 184.66L80.47 184.57L80.46 184.52L80.44 184.47L80.43 184.42L80.41 184.37L80.4 184.32L80.38 184.27L80.37 184.21L80.35 184.16L80.34 184.11L80.32 184.05L80.3 184L80.29 183.95L80.27 183.89L80.26 183.84L80.24 183.78L80.22 183.73L80.16 183.52L80.09 183.3L80.03 183.09L79.96 182.87L79.9 182.66L79.83 182.44L79.77 182.23L79.7 182.01L79.64 181.8L79.57 181.59L79.51 181.37L79.44 181.16L79.38 180.95L79.32 180.74L79.26 180.54L79.2 180.33L79.14 180.13L79.08 179.93L79.02 179.73L78.96 179.54L78.91 179.35L78.85 179.16L78.8 178.97L78.74 178.79L78.69 178.62L78.64 178.44L78.59 178.27L78.54 178.11L78.5 177.95L78.45 177.8L78.41 177.65L78.37 177.5L78.33 177.36L78.29 177.23L78.25 177.11L78.22 176.99L78.18 176.87L78.15 176.76L78.12 176.66L78.1 176.57L78.09 176.54L78.08 176.5L78.07 176.47L78.06 176.44L78.04 176.41L78.03 176.38L78.02 176.35L78.01 176.32L78 176.29L77.98 176.26L77.97 176.23L77.96 176.2L77.94 176.18L77.93 176.15L77.92 176.13L77.9 176.1L77.89 176.08L77.87 176.06L77.86 176.03L77.84 176.01L77.83 175.99L77.81 175.97L77.8 175.95L77.78 175.93L77.76 175.92L77.75 175.9L77.73 175.88L77.71 175.87L77.7 175.85L77.68 175.84L77.66 175.83L77.64 175.82L77.62 175.81L77.61 175.8L77.59 175.79L77.57 175.78L77.55 175.77L77.53 175.76L77.51 175.76L77.49 175.75L77.41 175.73L77.32 175.7L77.22 175.67L77.12 175.64L77.01 175.61L76.9 175.57L76.78 175.53L76.66 175.5L76.53 175.46L76.4 175.42L76.27 175.37L76.14 175.33L76 175.29L75.86 175.25L75.72 175.2L75.58 175.16L75.44 175.11L75.3 175.07L75.16 175.02L75.03 174.98L74.89 174.94L74.75 174.89L74.62 174.85L74.49 174.81L74.36 174.77L74.24 174.73L74.12 174.69L74 174.65L73.89 174.61L73.78 174.58L73.68 174.55L73.59 174.51L73.5 174.49L73.42 174.46L73.35 174.43L73.28 174.41L73.22 174.39L73.17 174.37L73.13 174.36L73.1 174.35L73.08 174.34L73.06 174.33L73.04 174.32L73.01 174.31L72.97 174.29L72.94 174.28L72.9 174.26L72.85 174.24L72.8 174.22L72.75 174.2L72.7 174.18L72.64 174.16L72.58 174.14L72.52 174.11L72.45 174.08L72.38 174.06L72.31 174.03L72.23 174L72.16 173.97L72.08 173.94L72 173.91L71.91 173.88L71.83 173.84L71.74 173.81L71.65 173.77L71.56 173.74L71.28 173.63L71.08 173.55L70.98 173.51L70.88 173.47L70.78 173.43L70.68 173.39L70.58 173.35L70.47 173.31L70.37 173.27L70.26 173.23L70.16 173.19L70.05 173.15L69.94 173.1L69.82 173.05L69.7 173.01L69.58 172.95L69.45 172.9L69.31 172.84L69.18 172.79L69.04 172.73L68.9 172.67L68.75 172.6L68.6 172.54L68.45 172.47L68.3 172.41L68.14 172.34L67.99 172.27L67.83 172.2L67.67 172.13L67.51 172.05L67.35 171.98L67.18 171.91L67.02 171.83L66.86 171.76L66.69 171.68L66.53 171.6L66.36 171.53L66.2 171.45L66.04 171.37L65.88 171.3L65.71 171.22L65.55 171.14L65.39 171.07L65.24 170.99L65.08 170.92L64.93 170.84L64.78 170.77L64.63 170.69L64.48 170.62L64.34 170.55L64.19 170.47L60.79 168.76L59.45 169.45L59.39 169.48L59.33 169.51L59.27 169.54L59.2 169.58L59.13 169.61L59.06 169.65L58.98 169.69L58.9 169.73L58.83 169.77L58.74 169.81L58.66 169.86L58.57 169.9L58.48 169.95L58.39 170L58.3 170.05L58.21 170.1L58.12 170.15L58.02 170.2L57.92 170.25L57.82 170.3L57.73 170.36L57.63 170.41L57.52 170.46L57.42 170.52L57.32 170.57L57.22 170.63L57.12 170.68L57.01 170.74L56.91 170.79L56.81 170.85L56.71 170.9L56.61 170.96L56.5 171.01L56.4 171.07L56.3 171.12L56.2 171.17L56.11 171.23L56.01 171.28L55.91 171.33L55.82 171.38L55.72 171.44L55.63 171.49L55.53 171.55L55.43 171.6L55.33 171.66L55.23 171.71L55.13 171.77L55.02 171.83L54.92 171.88L54.81 171.94L54.71 172L54.6 172.06L54.5 172.11L54.39 172.17L54.29 172.23L54.18 172.29L54.08 172.34L53.97 172.4L53.87 172.46L53.76 172.51L53.66 172.57L53.56 172.62L53.46 172.68L53.36 172.73L53.26 172.79L53.16 172.84L53.07 172.89L52.79 173.04L52.7 173.09L52.62 173.13L52.53 173.18L52.45 173.22L52.37 173.26L52.3 173.31L52.22 173.35L52.15 173.38L52.08 173.42L52.02 173.46L51.83 173.55L51.63 173.66L51.42 173.78L51.2 173.9L50.96 174.02L50.71 174.15L50.46 174.29L50.19 174.43L49.92 174.58L49.64 174.73L49.36 174.89L49.06 175.05L48.77 175.21L48.47 175.37L48.16 175.53L47.86 175.7L47.55 175.87L47.24 176.03L46.93 176.2L46.63 176.37L46.32 176.53L46.02 176.7L45.72 176.86L45.42 177.03L45.13 177.19L44.84 177.34L44.56 177.49L44.29 177.64L44.02 177.79L43.77 177.93L43.52 178.06L43.28 178.19L43.06 178.32L42.84 178.44L42.64 178.55L42.46 178.65L42.28 178.75L42.13 178.83L41.98 178.91L41.86 178.98L41.74 179.05L41.61 179.11L41.49 179.18L41.36 179.25L41.15 179.36L40.95 179.47L40.81 179.54L40.74 179.58L40.67 179.62L40.6 179.66L40.53 179.69L40.47 179.73L40.4 179.77L40.33 179.8L40.26 179.84L40.2 179.87L40.13 179.91L40.07 179.94L40.01 179.98L39.94 180.01L39.88 180.04L39.82 180.08L39.76 180.11L39.71 180.14L39.65 180.17L39.6 180.2L39.54 180.23L39.49 180.25L39.44 180.28L39.4 180.31L39.35 180.33L38.25 180.88L18.9 161.53L19.77 159.91L19.84 159.78L19.91 159.64L19.99 159.5L20.07 159.35L20.15 159.19L20.24 159.03L20.33 158.87L20.42 158.7L20.51 158.53L20.6 158.35L20.7 158.17L20.8 157.99L20.9 157.8L21 157.61L21.11 157.41L21.22 157.21L21.33 157.01L21.44 156.8L21.55 156.59L21.67 156.38L21.79 156.16L21.9 155.94L22.02 155.72L22.15 155.5L22.27 155.27L22.39 155.04L22.52 154.81L22.65 154.57L22.78 154.34L22.9 154.1L23.04 153.86L23.17 153.62L23.3 153.37L23.43 153.13L23.57 152.88L23.7 152.63L23.84 152.38L23.98 152.13L24.11 151.88L24.25 151.63L24.3 151.54L24.34 151.46L24.39 151.37L24.44 151.27L24.49 151.18L24.54 151.09L24.59 151L24.64 150.9L24.69 150.81L24.74 150.71L24.79 150.61L24.84 150.52L24.89 150.42L24.95 150.33L25 150.23L25.05 150.14L25.1 150.04L25.15 149.95L25.2 149.85L25.25 149.76L25.3 149.67L25.35 149.57L25.4 149.48L25.45 149.39L25.5 149.31L25.54 149.22L25.59 149.13L25.63 149.05L25.68 148.97L25.72 148.89L25.77 148.81L25.81 148.73L25.85 148.66L25.89 148.59L25.93 148.52L25.96 148.45L26 148.39L26.03 148.33L26.06 148.27L26.09 148.21L26.12 148.16L26.16 148.1L26.19 148.03L26.23 147.97L26.26 147.9L26.3 147.83L26.34 147.75L26.38 147.68L26.42 147.6L26.47 147.52L26.56 147.35L26.6 147.27L26.65 147.18L26.75 147L26.85 146.82L27.16 146.24L27.27 146.04L27.37 145.85L27.43 145.75L27.48 145.65L27.53 145.55L27.64 145.36L27.74 145.16L27.79 145.07L27.84 144.97L27.89 144.88L27.94 144.79L27.99 144.7L28.04 144.61L28.1 144.52L28.15 144.42L28.2 144.32L28.26 144.22L28.31 144.12L28.37 144.02L28.42 143.92L28.48 143.81L28.54 143.7L28.6 143.6L28.66 143.49L28.72 143.38L28.78 143.27L28.84 143.16L28.9 143.05L28.96 142.94L29.02 142.82L29.08 142.71L29.14 142.6L29.2 142.49L29.26 142.38L29.32 142.27L29.37 142.16L29.43 142.06L29.49 141.95L29.55 141.84L29.6 141.74L29.66 141.64L29.71 141.53L29.77 141.43L29.82 141.34L29.87 141.24L29.92 141.15L30.02 140.97L30.2 140.63L31.18 138.74L29.89 136.15L29.74 135.84L29.58 135.53L29.43 135.21L29.28 134.9L29.13 134.58L28.98 134.27L28.84 133.96L28.69 133.64L28.55 133.32L28.41 133.01L28.27 132.69L28.13 132.37L27.99 132.05L27.85 131.74L27.72 131.41L27.58 131.09L27.45 130.77L27.32 130.44L27.19 130.12L27.06 129.79L26.93 129.46L26.81 129.13L26.68 128.8L26.55 128.47L26.43 128.13L26.31 127.79L26.19 127.45L26.06 127.11L25.94 126.77L25.82 126.42L25.71 126.07L25.59 125.72L25.47 125.37L25.35 125.01L25.24 124.65L25.12 124.29L25.01 123.93L24.9 123.56L24.78 123.19L24.67 122.82L24.65 122.75L24.63 122.68L24.61 122.62L24.59 122.56L24.57 122.5L24.55 122.45L24.53 122.39L24.51 122.34L24.49 122.3L24.48 122.25L24.46 122.2L24.44 122.16L24.42 122.12L24.4 122.08L24.38 122.05L24.37 122.01L24.35 121.98L24.33 121.95L24.31 121.92L24.29 121.89L24.27 121.86L24.25 121.84L24.23 121.81L24.21 121.79L24.18 121.77L24.16 121.75L24.14 121.73L24.11 121.71L24.09 121.7L24.06 121.68L24.03 121.66L24.01 121.65L23.98 121.63L23.95 121.62L23.91 121.61L23.88 121.59L23.85 121.58L23.81 121.57L23.78 121.56L23.74 121.55L23.68 121.53L23.61 121.5L23.53 121.48L23.44 121.45L23.35 121.42L23.24 121.39L23.13 121.35L23.02 121.32L22.89 121.28L22.76 121.24L22.62 121.2L22.48 121.15L22.33 121.11L22.18 121.06L22.02 121.01L21.86 120.97L21.69 120.91L21.52 120.86L21.35 120.81L21.17 120.76L20.99 120.7L20.81 120.65L20.63 120.6L20.44 120.54L20.25 120.48L20.07 120.43L19.88 120.37L19.69 120.32L19.5 120.26L19.32 120.21L19.13 120.15L18.94 120.1L18.76 120.04L18.58 119.99L18.4 119.93L18.22 119.88L18.05 119.83L17.88 119.78L17.71 119.73L17.55 119.69L17.42 119.65L17.29 119.61L17.17 119.58L17.05 119.54L16.94 119.51L16.82 119.48L16.71 119.45L16.6 119.41L16.49 119.38L16.39 119.35L16.28 119.32L16.18 119.29L16.07 119.26L15.97 119.23L15.87 119.2L15.77 119.17L15.67 119.14L15.57 119.11L15.46 119.08L15.36 119.05L15.26 119.02L15.16 118.99L15.05 118.96L14.94 118.92L14.84 118.89L14.73 118.86L14.62 118.82L14.5 118.79L14.39 118.75L14.27 118.72L14.15 118.68L14.02 118.64L13.89 118.6L13.76 118.56L13.63 118.52L13.49 118.48L13.35 118.44L13.2 118.39L13.05 118.35L12.89 118.3L12.84 118.28L12.79 118.27L12.73 118.25L12.68 118.24L12.62 118.22L12.57 118.2L12.52 118.19L12.46 118.17L12.41 118.16L12.36 118.14L12.31 118.13L12.26 118.11L12.2 118.1L12.15 118.08L12.11 118.07L12.06 118.05L11.96 118.02L11.83 117.98L11.75 117.96L11.71 117.95L11.63 117.92L11.56 117.9L11.53 117.89L11.49 117.88L11.46 117.88L11.44 117.87L11.41 117.86L11.39 117.85L11.36 117.85L11.34 117.84L11.32 117.84L11.31 117.83L11.29 117.83L11.28 117.82L11.26 117.82L11.24 117.81L11.22 117.81L11.19 117.8L11.15 117.79L11.11 117.78L11.06 117.76L11.01 117.75L10.95 117.73L10.89 117.71L10.82 117.69L10.75 117.67L10.67 117.65L10.59 117.63L10.51 117.6L10.42 117.58L10.32 117.55L10.23 117.52L10.13 117.49L10.02 117.46L9.92 117.43L9.8 117.4L9.69 117.36L9.57 117.33L9.45 117.29L9.33 117.26L9.21 117.22L9.08 117.18L8.95 117.14L8.81 117.11L8.68 117.07L8.54 117.03L8.4 116.98L8.26 116.94L8.12 116.9L7.98 116.86L7.83 116.82L7.68 116.77L7.53 116.73L7.39 116.68L6.78 116.5L6.48 116.41L6.32 116.37L6.17 116.32L6.02 116.28L5.86 116.23L5.71 116.18L5.56 116.14L5.4 116.09L5.25 116.05L5.1 116L4.95 115.96L4.8 115.92L4.66 115.87L4.51 115.83L4.37 115.79L4.23 115.75L4.09 115.7L3.96 115.66L3.82 115.62L3.69 115.59L3.56 115.55L3.44 115.51L3.32 115.48L3.2 115.44L3.09 115.41L2.97 115.38L2.87 115.34L2.77 115.31L2.67 115.29L2.57 115.26L2.49 115.23L2.4 115.21L2.32 115.19L2.25 115.17L2.18 115.15L2.12 115.13L2.05 115.11L1.99 115.09L1.92 115.07L1.86 115.05L1.79 115.03L1.73 115.01L1.66 114.99L1.6 114.97L1.54 114.95L1.47 114.93L1.41 114.91L1.35 114.89L1.29 114.87L1.23 114.85L1.18 114.83L1.12 114.81L1.06 114.79L1.01 114.77L0.96 114.76L0.9 114.74L0.85 114.72L0.8 114.7L0.76 114.69L0.71 114.67L0.67 114.66L0.62 114.64L0.58 114.62L0.54 114.61L0.5 114.6L0.47 114.58L0.43 114.57L0.4 114.56L0.37 114.54L0.35 114.53L0.32 114.52L0.3 114.51L0.28 114.5L0.26 114.49L0.24 114.48L0.22 114.47L0.19 114.45L0.17 114.43L0.15 114.41L0.12 114.38L0.1 114.34L0.09 114.3L0.07 114.24L0.05 114.18L0.04 114.1L0.02 114.02L0.01 113.91L-0.01 113.8L-0.02 113.66L-0.03 113.51L-0.04 113.34L-0.05 113.15L-0.06 112.95L-0.06 112.71L-0.07 112.46L-0.08 112.18L-0.08 111.88L-0.09 111.55L-0.09 111.19L-0.1 110.8L-0.1 110.39L-0.1 109.94L-0.11 109.46L-0.11 108.95L-0.11 108.4L-0.11 107.82L-0.11 107.2L-0.11 106.54L-0.12 105.84L-0.12 105.1L-0.12 104.32L-0.12 103.5L-0.12 102.63L-0.12 101.72L-0.12 100.77L-0.1 87.24L0.98 86.16L1.06 86.09L1.13 86.02L1.2 85.95L1.26 85.89L1.32 85.83L1.39 85.77L1.45 85.72L1.5 85.66L1.56 85.61L1.62 85.56L1.67 85.52L1.73 85.47L1.78 85.43L1.84 85.39L1.89 85.35L1.95 85.31L2 85.28L2.05 85.24L2.11 85.21L2.17 85.17L2.22 85.14L2.28 85.11L2.34 85.08L2.41 85.05L2.47 85.02L2.54 85L2.6 84.97L2.67 84.94L2.75 84.91L2.82 84.89L2.9 84.86L2.98 84.83L3.07 84.8L3.16 84.77L3.25 84.74L3.35 84.71L3.45 84.68L3.55 84.65L3.66 84.62L3.78 84.59L3.92 84.54L4.06 84.5L4.21 84.46L4.35 84.42L4.49 84.38L4.63 84.34L4.78 84.3L4.92 84.25L5.07 84.21L5.21 84.17L5.36 84.13L5.51 84.08L5.65 84.04L5.8 83.99L5.96 83.95L6.11 83.9L6.27 83.86L6.43 83.81L6.59 83.76L6.75 83.71L6.92 83.66L7.08 83.61L7.26 83.56L7.43 83.51L7.61 83.45L7.79 83.4L7.98 83.34L8.17 83.29L8.36 83.23L8.56 83.17L8.76 83.11L8.97 83.05L9.18 82.98L9.39 82.92L9.62 82.85L9.84 82.78L10.07 82.71L10.31 82.64L10.56 82.57L10.8 82.5L10.9 82.47L10.99 82.44L11.08 82.41L11.18 82.38L11.27 82.36L11.36 82.33L11.45 82.3L11.54 82.27L11.63 82.25L11.71 82.22L11.8 82.2L11.88 82.17L11.97 82.15L12.05 82.12L12.13 82.1L12.2 82.08L12.28 82.05L12.36 82.03L12.43 82.01L12.5 81.99L12.57 81.97L12.63 81.95L12.7 81.93L12.76 81.91L12.82 81.89L12.88 81.88L12.93 81.86L12.98 81.85L13.03 81.83L13.08 81.82L13.12 81.81L13.16 81.79L13.2 81.78L13.24 81.77L13.27 81.76L13.29 81.76L13.32 81.75L13.34 81.74L13.36 81.74L13.38 81.73L13.4 81.73L13.41 81.73L13.43 81.72L13.45 81.71L13.47 81.71L13.5 81.7L13.53 81.69L13.55 81.69L13.58 81.68L13.61 81.67L13.65 81.66L13.68 81.65L13.72 81.64L13.76 81.63L13.79 81.62L13.83 81.61L13.88 81.6L13.92 81.58L13.96 81.57L14.01 81.56L14.05 81.54L14.1 81.53L14.15 81.52L14.19 81.5L14.24 81.49L14.29 81.47L14.34 81.46L14.4 81.44L14.45 81.43L14.5 81.41L14.55 81.39L14.61 81.38L14.66 81.36L14.71 81.35L14.77 81.33L14.82 81.31L14.87 81.3L14.93 81.28L14.98 81.26L15.04 81.24L15.09 81.23L15.15 81.21L15.2 81.19L15.26 81.18L15.31 81.16L15.37 81.14L15.42 81.13L15.47 81.11L15.53 81.1L15.58 81.08L15.63 81.07L15.68 81.05L15.73 81.04L15.78 81.02L15.83 81.01L15.87 80.99L15.92 80.98L15.97 80.97L16.01 80.95L16.05 80.94L16.1 80.93L16.14 80.92L16.18 80.9L16.21 80.89L16.25 80.88L16.29 80.87L16.32 80.86L16.35 80.85L16.39 80.84L16.41 80.84L16.44 80.83L16.47 80.82L16.49 80.81L16.51 80.81L16.54 80.8L16.55 80.8L16.57 80.79L16.58 80.79L16.61 80.78L16.62 80.78L16.64 80.78L16.66 80.77L16.68 80.76L16.7 80.76L16.73 80.75L16.75 80.74L16.78 80.74L16.81 80.73L16.84 80.72L16.88 80.71L16.91 80.7L16.95 80.69L16.98 80.68L17.02 80.67L17.06 80.66L17.1 80.65L17.15 80.63L17.19 80.62L17.24 80.61L17.28 80.59L17.33 80.58L17.38 80.57L17.42 80.55L17.47 80.54L17.52 80.52L17.57 80.51L17.62 80.49L17.68 80.48L17.73 80.46L17.78 80.45L17.83 80.43L17.89 80.41L17.94 80.4L18 80.38L18.05 80.36L18.1 80.35L18.16 80.33L18.21 80.31L18.27 80.29L18.32 80.28L18.38 80.26L18.43 80.24L18.49 80.23L18.54 80.21L18.59 80.2L18.65 80.18L18.7 80.17L18.75 80.15L18.8 80.13L18.85 80.12L18.9 80.11L18.95 80.09L18.99 80.08L19.04 80.06L19.08 80.05L19.13 80.04L19.17 80.03L19.29 79.99L19.37 79.97L19.4 79.96L19.44 79.95L19.47 79.94L19.5 79.93L19.53 79.92L19.56 79.91L19.58 79.9L19.61 79.9L19.63 79.89L19.65 79.88L19.67 79.88L19.69 79.87L19.7 79.87L19.71 79.86L19.72 79.86L19.73 79.86L19.79 79.84L19.85 79.83L19.91 79.81L19.97 79.79L20.03 79.78L20.1 79.76L20.16 79.74L20.23 79.72L20.3 79.7L20.37 79.68L20.44 79.66L20.51 79.64L20.58 79.62L20.65 79.6L20.73 79.58L20.8 79.56L20.87 79.54L20.95 79.52L21.02 79.5L21.1 79.47L21.17 79.45L21.24 79.43L21.32 79.41L21.39 79.39L21.46 79.37L21.53 79.34L21.6 79.32L21.67 79.3L21.74 79.28L21.81 79.26L21.87 79.24L21.94 79.22L22 79.2L22.06 79.18L22.12 79.16L22.18 79.14L22.23 79.13L22.29 79.11L22.34 79.09L22.39 79.08L22.42 79.07L22.46 79.06L22.49 79.05L22.53 79.03L22.56 79.02L22.6 79.01L22.64 79L22.73 78.97L22.81 78.95L22.95 78.9L23.04 78.87L23.09 78.86L23.14 78.84L23.19 78.83L23.24 78.81L23.28 78.8L23.33 78.78L23.38 78.77L23.43 78.75L23.48 78.74L23.53 78.72L23.58 78.7L23.63 78.69L23.68 78.67L23.73 78.66L23.78 78.64L23.83 78.63L23.88 78.61L23.92 78.6L23.97 78.58L24.02 78.57L24.06 78.55L24.11 78.54L24.15 78.52L24.19 78.51L24.27 78.49L24.34 78.46L24.41 78.44L24.47 78.42L24.54 78.4L24.59 78.38L24.65 78.37L24.7 78.35L24.75 78.33L24.8 78.31L24.84 78.29L24.89 78.27L24.93 78.26L24.96 78.24L25 78.22L25.03 78.2L25.07 78.17L25.1 78.15L25.13 78.13L25.15 78.1L25.18 78.08L25.21 78.05L25.23 78.02L25.25 77.99L25.28 77.96L25.3 77.93L25.32 77.89L25.34 77.86L25.36 77.82L25.38 77.78L25.4 77.73L25.42 77.69L25.44 77.64L25.46 77.59L25.48 77.53L25.51 77.47L25.53 77.41L25.55 77.35L25.58 77.29L25.6 77.22L25.7 76.93L25.8 76.64L25.9 76.35L26 76.06L26.11 75.77L26.21 75.48L26.32 75.19L26.43 74.9L26.54 74.61L26.65 74.33L26.76 74.04L26.87 73.75L26.98 73.46L27.09 73.17L27.21 72.88L27.33 72.6L27.44 72.31L27.56 72.02L27.68 71.74L27.8 71.46L27.92 71.17L28.04 70.89L28.16 70.61L28.28 70.33L28.4 70.05L28.52 69.77L28.65 69.5L28.77 69.22L28.9 68.95L29.02 68.68L29.15 68.41L29.27 68.14L29.4 67.88L29.53 67.61L29.65 67.35L29.78 67.09L29.91 66.83L30.04 66.57L30.16 66.32L30.29 66.07L30.35 65.96L30.4 65.86L30.45 65.75L30.5 65.65L30.55 65.55L30.61 65.45L30.66 65.34L30.7 65.25L30.75 65.15L30.8 65.05L30.85 64.95L30.89 64.86L30.94 64.77L30.98 64.68L31.02 64.59L31.06 64.5L31.1 64.42L31.14 64.33L31.18 64.25L31.22 64.17L31.25 64.1L31.29 64.02L31.32 63.95L31.35 63.88L31.38 63.82L31.41 63.75L31.43 63.69L31.46 63.63L31.48 63.58L31.5 63.53L31.52 63.48L31.53 63.44L31.55 63.4L31.56 63.36L31.58 63.33L31.58 63.3L31.59 63.27L31.6 63.25L31.6 63.23L31.6 63.22L31.6 63.2L31.6 63.19L31.6 63.18L31.6 63.16L31.6 63.15L31.59 63.13L31.59 63.12L31.59 63.1L31.59 63.09L31.58 63.07L31.58 63.05L31.57 63.04L31.57 63.02L31.56 63L31.56 62.99L31.55 62.97L31.55 62.95L31.54 62.94L31.53 62.92L31.53 62.9L31.52 62.88L31.51 62.86L31.5 62.85L31.5 62.83L31.49 62.81L31.48 62.79L31.47 62.77L31.46 62.76L31.45 62.74L31.44 62.72L31.43 62.7L31.42 62.69L31.41 62.67L31.4 62.65L31.39 62.63L31.38 62.62L31.37 62.6L31.36 62.58L31.35 62.57L31.34 62.55L31.33 62.54L31.31 62.52L31.3 62.49L31.28 62.47L31.27 62.44L31.25 62.41L31.23 62.38L31.21 62.34L31.19 62.3L31.17 62.26L31.14 62.22L31.12 62.18L31.09 62.13L31.06 62.08L31.03 62.03L31.01 61.98L30.98 61.92L30.94 61.87L30.91 61.81L30.88 61.75L30.85 61.69L30.81 61.63L30.78 61.57L30.74 61.5L30.71 61.44L30.67 61.37L30.64 61.31L30.6 61.24L30.56 61.17L30.52 61.1L30.49 61.03L30.45 60.96L30.41 60.88L30.37 60.81L30.33 60.74L30.29 60.66L30.26 60.59L30.22 60.52L30.18 60.44L30.14 60.37L30.1 60.29L30.06 60.21L30.01 60.13L29.97 60.05L29.92 59.96L29.87 59.88L29.83 59.78L29.78 59.69L29.73 59.6L29.67 59.5L29.51 59.2L29.4 59L29.35 58.89L29.29 58.79L29.23 58.68L29.18 58.57L29.12 58.46L29.06 58.36L29 58.25L28.94 58.14L28.89 58.03L28.83 57.93L28.77 57.82L28.71 57.71L28.66 57.6L28.6 57.5L28.54 57.39L28.49 57.29L28.43 57.19L28.38 57.08L28.32 56.98L28.27 56.89L28.21 56.79L28.16 56.69L28.11 56.6L28.06 56.51L28.01 56.42L27.96 56.33L27.92 56.24L27.86 56.15L27.81 56.05L27.76 55.95L27.71 55.85L27.65 55.75L27.59 55.65L27.54 55.54L27.48 55.44L27.42 55.33L27.18 54.89L27.06 54.66L27 54.55L26.94 54.44L26.88 54.32L26.81 54.21L26.75 54.09L26.69 53.98L26.63 53.87L26.57 53.76L26.51 53.65L26.45 53.54L26.39 53.43L26.33 53.32L26.27 53.21L26.22 53.1L26.16 53L26.11 52.9L26.05 52.8L26 52.7L25.95 52.6L25.9 52.51L25.85 52.42L25.8 52.33L25.75 52.24L25.71 52.16L25.66 52.07L25.61 51.98L25.57 51.9L25.52 51.81L25.47 51.72L25.42 51.63L25.37 51.54L25.33 51.46L25.28 51.37L25.23 51.28L25.18 51.19L25.13 51.1L25.08 51.01L25.04 50.92L24.99 50.84L24.94 50.75L24.89 50.66L24.85 50.58L24.8 50.49L24.75 50.41L24.71 50.33L24.66 50.25L24.62 50.17L24.58 50.09L24.54 50.01L24.49 49.94L24.45 49.87L24.41 49.8L24.38 49.73L24.34 49.66L24.3 49.59L24.27 49.53L24.23 49.47L24.2 49.41L24.17 49.36L24.14 49.3L24.11 49.25L24.09 49.21L24.06 49.16L24.04 49.12L24.01 49.07L23.99 49.02L23.96 48.97L23.93 48.92L23.9 48.86L23.87 48.81L23.84 48.75L23.81 48.69L23.77 48.62L23.74 48.56L23.7 48.49L23.66 48.43L23.63 48.36L23.47 48.07L23.39 47.92L23.35 47.85L23.31 47.77L23.27 47.69L23.23 47.62L23.19 47.54L23.14 47.46L23.1 47.38L23.06 47.31L23.02 47.23L22.98 47.15L22.94 47.07L22.89 47L22.85 46.92L22.81 46.85L22.77 46.77L22.73 46.7L22.69 46.62L22.66 46.55L22.62 46.48L22.58 46.41L22.54 46.34L22.5 46.26L22.46 46.18L22.42 46.11L22.38 46.02L22.33 45.94L22.29 45.86L22.24 45.77L22.19 45.68L22.15 45.59L22.1 45.5L22.05 45.41L22 45.32L21.95 45.23L21.89 45.13L21.84 45.04L21.79 44.94L21.74 44.84L21.68 44.75L21.63 44.65L21.58 44.55L21.52 44.45L21.47 44.36L21.42 44.26L21.36 44.16L21.31 44.07L21.15 43.78L21.1 43.69L21.05 43.59L21 43.5L20.95 43.41L20.9 43.32L20.85 43.23L20.8 43.15L20.76 43.06L20.71 42.98L20.67 42.9L20.62 42.82L19.6 40.96L28.3 32.22L28.66 31.86L29.02 31.5L29.38 31.14L29.74 30.78L30.09 30.43L30.45 30.07L30.8 29.72L31.15 29.37L31.5 29.02L31.85 28.68L32.19 28.34L32.53 28L32.87 27.67L33.2 27.34L33.52 27.02L33.84 26.7L34.16 26.39L34.47 26.08L34.77 25.78L35.07 25.49L35.36 25.2L35.64 24.93L35.91 24.65L36.18 24.39L36.44 24.14L36.69 23.89L36.93 23.65L37.16 23.43L37.38 23.21L37.59 23L37.8 22.81L37.99 22.62L38.17 22.45L38.34 22.28L38.49 22.13L38.64 21.99L38.77 21.87L38.89 21.75L38.99 21.65L39.09 21.57L41.14 19.65L42.22 20.2L42.26 20.22L42.31 20.25L42.36 20.27L42.41 20.3L42.46 20.33L42.52 20.35L42.57 20.38L42.63 20.41L42.69 20.44L42.75 20.48L42.81 20.51L42.87 20.54L42.93 20.57L43 20.61L43.06 20.64L43.13 20.68L43.19 20.71L43.26 20.75L43.32 20.78L43.39 20.82L43.46 20.86L43.53 20.89L43.6 20.93L43.66 20.97L43.73 21L43.87 21.08L44.01 21.15L44.07 21.19L44.27 21.29L44.4 21.36L44.46 21.4L44.53 21.43L44.59 21.46L44.65 21.5L44.71 21.53L44.8 21.58L44.91 21.64L45.03 21.71L45.15 21.78L45.29 21.85L45.43 21.93L45.59 22.02L45.75 22.11L45.92 22.2L46.1 22.3L46.29 22.4L46.48 22.51L46.69 22.62L46.9 22.74L47.11 22.85L47.34 22.98L47.57 23.1L47.81 23.23L48.06 23.37L48.31 23.51L48.56 23.65L48.83 23.79L49.1 23.93L49.37 24.08L49.65 24.23L49.93 24.39L50.22 24.55L50.51 24.7L50.81 24.87L51.11 25.03L51.42 25.19L51.73 25.36L52.04 25.53L52.35 25.7L52.67 25.87L52.99 26.05L53.32 26.22L53.64 26.4L53.97 26.57L54.3 26.75L54.35 26.78L54.45 26.84L54.57 26.9L54.71 26.97L54.85 27.05L55 27.13L55.24 27.26L55.77 27.55L55.96 27.66L56.15 27.76L56.25 27.81L56.35 27.87L56.45 27.92L56.64 28.03L56.74 28.08L56.84 28.13L56.94 28.19L57.04 28.24L57.14 28.3L57.24 28.35L57.33 28.4L57.43 28.46L57.53 28.51L57.62 28.56L57.72 28.61L57.81 28.66L57.91 28.71L58.01 28.77L58.11 28.82L58.21 28.88L58.32 28.93L58.43 28.99L58.53 29.05L58.64 29.1L58.75 29.16L58.86 29.22L58.98 29.28L59.09 29.34L59.32 29.46L59.66 29.64L59.89 29.77L60 29.83L60.11 29.89L60.22 29.95L60.34 30.01L60.45 30.06L60.56 30.12L60.66 30.18L60.77 30.24L60.88 30.29L60.98 30.35L61.08 30.4L61.18 30.46L61.28 30.51L61.37 30.56L61.47 30.61L61.56 30.66L61.65 30.7L61.73 30.75L61.82 30.79L61.9 30.83L63.8 31.84L66.99 30.26L67.23 30.15L67.47 30.03L67.71 29.91L67.94 29.8L68.18 29.68L68.42 29.57L68.66 29.46L68.89 29.35L69.13 29.24L69.36 29.13L69.6 29.02L69.83 28.92L70.07 28.81L70.3 28.71L70.54 28.61L70.77 28.51L71.01 28.41L71.24 28.31L71.48 28.21L71.71 28.11L71.95 28.01L72.18 27.92L72.42 27.82L72.66 27.72L72.89 27.63L73.13 27.54L73.37 27.45L73.61 27.35L73.85 27.26L74.09 27.17L74.33 27.08L74.57 26.99L74.81 26.9L75.06 26.81L75.3 26.73L75.55 26.64L75.79 26.55L76.04 26.47L76.29 26.38L76.54 26.29L78.38 25.67L80.81 17.52L80.91 17.18L81.02 16.85L81.11 16.52L81.21 16.19L81.31 15.86L81.41 15.54L81.51 15.22L81.6 14.9L81.7 14.58L81.79 14.27L81.88 13.97L81.97 13.67L82.06 13.37L82.15 13.08L82.23 12.79L82.32 12.51L82.4 12.24L82.48 11.97L82.56 11.71L82.63 11.46L82.71 11.21L82.78 10.97L82.85 10.74L82.91 10.52L82.98 10.3L83.04 10.1L83.1 9.9L83.15 9.72L83.21 9.54L83.26 9.37L83.35 9.07L83.42 8.81L83.46 8.7L83.51 8.51L83.53 8.44L83.55 8.38L83.57 8.33L83.6 8.2L83.64 8.08L83.68 7.96L83.72 7.84L83.75 7.72L83.79 7.6L83.82 7.47L83.86 7.35L83.9 7.23L83.93 7.11L83.97 6.99L84 6.88L84.04 6.76L84.08 6.64L84.11 6.52L84.15 6.41L84.18 6.29L84.21 6.17L84.25 6.06L84.28 5.95L84.32 5.83L84.35 5.72L84.38 5.61L84.42 5.5L84.45 5.39L84.48 5.28L84.51 5.17L84.54 5.06L84.58 4.96L84.61 4.85L84.64 4.75L84.67 4.65L84.7 4.54L84.73 4.44L84.76 4.34L84.79 4.24L84.81 4.15L84.84 4.05L84.87 3.96L84.9 3.86L84.91 3.82L84.92 3.78L84.94 3.73L84.95 3.69L84.97 3.64L84.99 3.6L85.01 3.55L85.03 3.5L85.05 3.46L85.07 3.41L85.09 3.36L85.12 3.31L85.14 3.26L85.17 3.21L85.19 3.16L85.22 3.11L85.25 3.06L85.28 3.01L85.31 2.95L85.34 2.9L85.38 2.85L85.41 2.79L85.45 2.74L85.48 2.68L85.52 2.62L85.56 2.57L85.59 2.51L85.63 2.45L85.67 2.39L85.72 2.34L85.76 2.28L85.8 2.22L85.85 2.16L85.89 2.1L85.94 2.03L85.99 1.97L86.04 1.91L86.09 1.85L86.14 1.78L86.19 1.72L87.12 0.73L100.85 0.73L101.51 0.73L102.16 0.73ZM96.72 64.8L96.51 64.8L96.31 64.81L96.12 64.81L95.94 64.82L95.78 64.83L95.64 64.84L95.51 64.85L95.46 64.86L95.4 64.87L95.33 64.87L95.25 64.88L95.17 64.89L95.09 64.91L95 64.92L94.9 64.93L94.8 64.95L94.7 64.96L94.59 64.98L94.48 64.99L94.37 65.01L94.25 65.03L94.13 65.05L94.01 65.07L93.88 65.09L93.75 65.11L93.62 65.13L93.49 65.15L93.36 65.17L93.23 65.19L93.09 65.22L92.96 65.24L92.82 65.26L92.69 65.28L92.55 65.31L92.42 65.33L92.29 65.35L92.15 65.37L92.02 65.4L91.9 65.42L91.77 65.44L91.64 65.46L91.52 65.49L91.4 65.51L91.29 65.53L91.17 65.55L91.06 65.57L90.96 65.59L90.63 65.66L90.29 65.73L89.95 65.81L89.61 65.9L89.26 65.99L88.91 66.09L88.56 66.19L88.2 66.3L87.84 66.41L87.48 66.54L87.11 66.66L86.75 66.79L86.38 66.93L86.01 67.07L85.64 67.22L85.27 67.37L84.9 67.53L84.53 67.69L84.15 67.86L83.78 68.03L83.41 68.21L83.04 68.38L82.67 68.57L82.3 68.75L81.93 68.94L81.57 69.14L81.21 69.34L80.85 69.54L80.49 69.74L80.13 69.95L79.78 70.16L79.43 70.37L79.09 70.59L78.75 70.81L78.41 71.03L78.08 71.25L77.75 71.48L77.43 71.7L77.12 71.93L76.81 72.16L76.56 72.35L76.31 72.54L76.07 72.73L75.84 72.91L75.61 73.1L75.38 73.29L75.16 73.47L74.94 73.66L74.72 73.85L74.51 74.04L74.3 74.23L74.1 74.42L73.89 74.61L73.7 74.81L73.5 75L73.3 75.2L73.11 75.4L72.92 75.6L72.74 75.8L72.55 76.01L72.37 76.22L72.19 76.43L72.01 76.64L71.83 76.86L71.65 77.08L71.48 77.3L71.31 77.52L71.13 77.75L70.96 77.99L70.79 78.22L70.62 78.46L70.45 78.71L70.28 78.95L70.11 79.21L69.94 79.46L69.77 79.73L69.61 79.99L69.44 80.27L69.27 80.54L69.09 80.82L68.95 81.07L68.81 81.31L68.67 81.56L68.53 81.82L68.39 82.08L68.25 82.35L68.11 82.62L67.97 82.9L67.84 83.18L67.7 83.46L67.57 83.74L67.43 84.03L67.3 84.32L67.17 84.62L67.05 84.91L66.92 85.21L66.8 85.51L66.67 85.81L66.56 86.11L66.44 86.41L66.32 86.71L66.21 87.01L66.1 87.31L66 87.61L65.89 87.91L65.79 88.21L65.69 88.5L65.6 88.8L65.51 89.09L65.42 89.38L65.34 89.67L65.26 89.95L65.18 90.23L65.11 90.51L65.04 90.79L64.98 91.05L64.92 91.32L64.86 91.58L64.81 91.84L64.76 92.09L64.76 92.12L64.76 92.14L64.75 92.17L64.75 92.2L64.74 92.23L64.74 92.26L64.73 92.29L64.73 92.32L64.72 92.35L64.72 92.38L64.71 92.41L64.7 92.44L64.7 92.47L64.69 92.51L64.69 92.54L64.68 92.57L64.68 92.6L64.67 92.63L64.67 92.66L64.66 92.69L64.65 92.72L64.65 92.75L64.64 92.79L64.64 92.82L64.63 92.85L64.63 92.87L64.62 92.9L64.61 92.93L64.61 92.96L64.6 92.99L64.6 93.01L64.59 93.04L64.59 93.07L64.58 93.09L64.58 93.12L64.57 93.14L64.57 93.16L64.56 93.19L64.56 93.21L64.56 93.23L64.51 93.45L64.47 93.67L64.43 93.91L64.4 94.16L64.36 94.42L64.33 94.68L64.3 94.96L64.27 95.24L64.25 95.53L64.22 95.82L64.2 96.12L64.18 96.43L64.17 96.74L64.15 97.06L64.14 97.39L64.13 97.71L64.12 98.04L64.12 98.38L64.11 98.71L64.11 99.05L64.11 99.39L64.12 99.73L64.12 100.08L64.13 100.42L64.14 100.76L64.15 101.1L64.16 101.44L64.18 101.78L64.2 102.12L64.22 102.46L64.24 102.79L64.26 103.12L64.29 103.44L64.32 103.76L64.35 104.08L64.38 104.39L64.42 104.7L64.46 104.99L64.49 105.29L64.54 105.57L64.68 106.42L64.84 107.27L65.03 108.11L65.24 108.95L65.47 109.78L65.72 110.6L65.99 111.43L66.28 112.24L66.59 113.05L66.92 113.85L67.27 114.64L67.64 115.42L68.03 116.2L68.43 116.97L68.86 117.73L69.3 118.48L69.76 119.21L70.24 119.94L70.74 120.66L71.25 121.37L71.78 122.07L72.33 122.75L72.89 123.42L73.47 124.09L74.06 124.73L74.67 125.37L75.29 125.99L75.93 126.59L76.58 127.19L77.25 127.76L77.93 128.33L78.62 128.87L79.33 129.4L80.05 129.92L80.79 130.41L81.53 130.9L82.29 131.36L83.06 131.8L83.84 132.23L84.63 132.64L84.8 132.72L84.97 132.8L85.15 132.89L85.33 132.97L85.52 133.06L85.72 133.15L85.92 133.24L86.13 133.33L86.34 133.41L86.55 133.5L86.77 133.59L86.99 133.68L87.21 133.77L87.43 133.86L87.66 133.95L87.89 134.04L88.12 134.12L88.35 134.21L88.58 134.3L88.81 134.38L89.03 134.46L89.26 134.54L89.49 134.62L89.71 134.7L89.93 134.77L90.15 134.85L90.36 134.92L90.57 134.99L90.78 135.05L90.98 135.11L91.18 135.17L91.37 135.23L91.56 135.29L91.74 135.34L91.91 135.38L92.08 135.43L92.24 135.47L92.39 135.5L92.53 135.54L92.67 135.56L92.71 135.57L92.79 135.59L92.91 135.62L93.08 135.65L93.12 135.66L93.24 135.69L93.4 135.72L93.7 135.78L93.89 135.82L93.97 135.84L94.05 135.86L94.09 135.87L94.11 135.87L94.14 135.88L94.17 135.88L94.2 135.89L94.23 135.89L94.27 135.9L94.31 135.91L94.35 135.91L94.4 135.92L94.45 135.93L94.5 135.94L94.56 135.95L94.61 135.95L94.67 135.96L94.73 135.97L94.8 135.98L94.86 135.99L94.93 136L95 136.01L95.07 136.02L95.14 136.03L95.22 136.04L95.3 136.05L95.37 136.06L95.45 136.08L95.53 136.09L95.61 136.1L95.7 136.11L95.78 136.12L95.87 136.13L95.95 136.14L96.04 136.15L96.13 136.17L96.21 136.18L96.3 136.19L96.39 136.2L96.48 136.21L96.57 136.22L96.66 136.24L96.75 136.25L97.28 136.31L97.81 136.37L98.34 136.42L98.87 136.46L99.4 136.49L99.94 136.51L100.48 136.53L101.01 136.53L101.55 136.53L102.09 136.52L102.63 136.5L103.17 136.47L103.71 136.43L104.25 136.39L104.79 136.34L105.33 136.28L105.87 136.21L106.41 136.13L106.95 136.04L107.49 135.95L108.03 135.85L108.57 135.74L109.11 135.62L109.64 135.49L110.18 135.36L110.72 135.22L111.25 135.07L111.78 134.91L112.31 134.74L112.84 134.57L113.37 134.38L113.89 134.19L114.42 134L114.94 133.79L115.46 133.58L115.98 133.36L116.49 133.13L117 132.89L117.51 132.64L118.02 132.39L118.49 132.15L118.94 131.91L119.39 131.66L119.84 131.4L120.27 131.14L120.7 130.88L121.12 130.6L121.54 130.33L121.95 130.04L122.36 129.75L122.75 129.46L123.15 129.15L123.53 128.85L123.91 128.53L124.29 128.21L124.65 127.88L125.02 127.55L125.37 127.21L125.72 126.86L126.07 126.5L126.41 126.14L126.75 125.77L127.08 125.4L127.4 125.01L127.72 124.62L128.04 124.23L128.35 123.82L128.65 123.41L128.95 122.99L129.25 122.56L129.54 122.12L129.83 121.68L130.11 121.22L130.39 120.76L130.67 120.29L130.94 119.82L131.2 119.33L131.47 118.84L131.73 118.34L131.98 117.82L132.07 117.65L132.16 117.46L132.25 117.27L132.34 117.08L132.43 116.88L132.52 116.68L132.61 116.48L132.7 116.27L132.79 116.06L132.88 115.84L132.97 115.63L133.06 115.41L133.15 115.19L133.24 114.97L133.33 114.75L133.41 114.53L133.5 114.31L133.58 114.09L133.67 113.87L133.75 113.65L133.83 113.43L133.91 113.22L133.98 113.01L134.06 112.8L134.13 112.59L134.2 112.39L134.26 112.19L134.33 112L134.39 111.81L134.44 111.62L134.5 111.44L134.55 111.27L134.6 111.1L134.64 110.94L134.69 110.79L134.72 110.64L134.76 110.5L134.79 110.37L134.81 110.25L134.83 110.13L134.84 110.1L134.84 110.08L134.84 110.05L134.85 110.01L134.86 109.98L134.86 109.95L134.87 109.92L134.87 109.88L134.88 109.85L134.89 109.81L134.89 109.78L134.9 109.74L134.91 109.7L134.91 109.66L134.92 109.63L134.93 109.59L134.94 109.55L134.95 109.51L134.95 109.47L134.96 109.43L134.97 109.39L134.98 109.35L134.99 109.31L134.99 109.27L135 109.23L135.01 109.19L135.02 109.15L135.03 109.11L135.04 109.07L135.05 109.03L135.06 108.99L135.06 108.95L135.07 108.92L135.08 108.88L135.09 108.84L135.1 108.81L135.11 108.77L135.12 108.74L135.13 108.7L135.13 108.67L135.16 108.53L135.19 108.39L135.22 108.25L135.25 108.11L135.27 107.97L135.3 107.82L135.32 107.68L135.35 107.54L135.37 107.39L135.39 107.25L135.41 107.1L135.43 106.95L135.45 106.8L135.47 106.65L135.49 106.5L135.51 106.34L135.52 106.19L135.54 106.03L135.55 105.87L135.57 105.7L135.58 105.54L135.6 105.37L135.61 105.2L135.62 105.03L135.63 104.85L135.64 104.67L135.65 104.49L135.66 104.31L135.66 104.12L135.67 103.93L135.68 103.73L135.68 103.54L135.69 103.33L135.69 103.13L135.7 102.92L135.7 102.71L135.7 102.49L135.7 102.27L135.7 102.04L135.7 101.81L135.7 101.55L135.7 101.3L135.7 101.06L135.7 100.82L135.7 100.6L135.7 100.38L135.7 100.16L135.69 99.96L135.69 99.76L135.69 99.57L135.68 99.38L135.68 99.2L135.67 99.02L135.66 98.85L135.66 98.68L135.65 98.52L135.64 98.36L135.63 98.2L135.62 98.05L135.61 97.9L135.6 97.75L135.59 97.6L135.58 97.46L135.56 97.32L135.55 97.17L135.53 97.03L135.51 96.89L135.5 96.75L135.48 96.61L135.46 96.47L135.44 96.32L135.41 96.18L135.39 96.03L135.36 95.89L135.34 95.74L135.31 95.58L135.28 95.43L135.25 95.27L135.22 95.1L135.19 94.94L135.06 94.3L134.93 93.67L134.78 93.05L134.62 92.43L134.46 91.82L134.29 91.22L134.1 90.61L133.91 90.02L133.71 89.43L133.5 88.84L133.28 88.26L133.06 87.69L132.82 87.12L132.57 86.56L132.32 86L132.05 85.45L131.78 84.9L131.5 84.36L131.21 83.82L130.91 83.29L130.6 82.76L130.28 82.24L129.95 81.72L129.61 81.21L129.27 80.7L128.91 80.2L128.55 79.71L128.17 79.21L127.79 78.73L127.4 78.25L126.99 77.77L126.58 77.3L126.16 76.83L125.73 76.37L125.29 75.91L124.85 75.46L124.39 75.01L123.92 74.57L123.45 74.13L122.96 73.7L122.66 73.44L122.35 73.19L122.04 72.93L121.71 72.67L121.38 72.42L121.04 72.16L120.7 71.91L120.34 71.66L119.99 71.42L119.62 71.17L119.25 70.93L118.88 70.69L118.5 70.45L118.12 70.22L117.73 69.99L117.34 69.76L116.95 69.54L116.56 69.32L116.16 69.1L115.76 68.89L115.36 68.68L114.96 68.48L114.55 68.28L114.15 68.09L113.75 67.9L113.35 67.72L112.95 67.55L112.55 67.38L112.15 67.21L111.75 67.05L111.36 66.9L110.96 66.76L110.58 66.62L110.19 66.49L109.81 66.36L109.43 66.25L109.06 66.14L108.69 66.04L108.33 65.94L107.97 65.86L107.87 65.83L107.76 65.81L107.67 65.79L107.57 65.76L107.48 65.74L107.4 65.72L107.32 65.7L107.24 65.69L107.16 65.67L107.09 65.65L107.02 65.64L106.95 65.62L106.88 65.61L106.81 65.59L106.75 65.58L106.69 65.56L106.62 65.55L106.56 65.54L106.5 65.52L106.44 65.51L106.38 65.5L106.32 65.49L106.25 65.47L106.19 65.46L106.13 65.45L106.06 65.43L105.99 65.42L105.92 65.41L105.85 65.39L105.77 65.38L105.7 65.36L105.61 65.35L105.53 65.33L105.44 65.31L105.35 65.29L105.25 65.28L105.15 65.26L104.94 65.22L104.82 65.19L104.7 65.17L104.56 65.15L104.41 65.13L104.24 65.11L104.06 65.1L103.86 65.08L103.66 65.06L103.44 65.04L103.2 65.02L102.96 65L102.71 64.99L102.46 64.97L102.19 64.95L101.92 64.94L101.64 64.92L101.36 64.91L101.07 64.9L100.79 64.88L100.5 64.87L100.2 64.86L99.91 64.85L99.62 64.84L99.33 64.83L99.04 64.82L98.76 64.81L98.48 64.81L98.21 64.8L97.94 64.8L97.68 64.8L97.43 64.8L97.18 64.79L96.95 64.8L96.72 64.8Z" id="b5HhN3O7Xc"></path></defs><g><g><g><use xlink:href="#b5HhN3O7Xc" opacity="1" fill="#000000" fill-opacity="1"></use><g><use xlink:href="#b5HhN3O7Xc" opacity="1" fill-opacity="0" stroke="#000000" stroke-width="1" stroke-opacity="0"></use></g></g></g></g></svg>